<svg xmlns="http://www.w3.org/2000/svg" xmlns:xlink="http://www.w3.org/1999/xlink" width="371.982" height="358.488" viewBox="0 0 371.982 358.488">
  <defs>
    <clipPath id="clip-path">
      <path id="Path_389" data-name="Path 389" d="M-2089.8,581.236c-5.231-3.65-12.842-5.247-19.159-5.176-44.78.5-43.631,94.094-35.1,114.331s4.671,27.429-29.5,41.19-15.627,33.329-10.346,45.229,14.593,21.554-9.967,35.828-15.058,21.086-15.058,21.086,51.1,44.344,47.227,29.121-1.07-38.92,41.047-44.163c18.141-2.258,45.3-13.232,49.875-33.231,1.064-4.657,1.495-11.672.015-16.28-2.052-6.392-6.751-11.176-9.63-17.114-6.709-13.839,6.313-25.447,13.516-35.656,3.761-5.33,7.51-10.788,10.236-16.737,5.661-12.351,2.139-24.81-5.976-35.1-3.891-4.935-9.158-10.077-11.179-16.177-2.172-6.554-1.508-15.806-1.688-22.717a144.774,144.774,0,0,0-.816-16.22C-2077.694,599.436-2081.06,587.338-2089.8,581.236Z" transform="translate(2210.74 -576.058)" fill="#eaedf3"/>
    </clipPath>
    <linearGradient id="linear-gradient" x1="0.5" x2="0.5" y2="1" gradientUnits="objectBoundingBox">
      <stop offset="0" stop-color="#86e2bf"/>
      <stop offset="1" stop-color="#25f2a4"/>
    </linearGradient>
    <clipPath id="clip-path-2">
      <path id="Path_396" data-name="Path 396" d="M-1968.075,864.434c-3.249-5.489-9.514-10.1-15.293-12.648-40.965-18.093-78.693,67.564-79.311,89.517s-7.112,26.9-43.911,25.269-28.031,23.86-28.155,36.879,4.352,25.663-23.914,28.479-22.441,12.953-22.441,12.953,28.136,61.529,30.919,46.07,15.15-35.866,55.655-23.189c17.446,5.46,46.715,6.725,59.161-9.582,2.9-3.8,6.2-10,6.759-14.81.78-6.668-1.515-12.969-1.675-19.566-.373-15.375,16.287-20.545,27.074-26.853,5.631-3.293,11.3-6.708,16.25-10.993,10.269-8.9,12.225-21.694,9.1-34.422-1.5-6.1-4.161-12.965-3.473-19.355.739-6.864,5.176-15.01,7.875-21.375a144.847,144.847,0,0,0,5.977-15.1C-1964.593,886.015-1962.644,873.61-1968.075,864.434Z" transform="translate(2181.596 -849.294)" fill="#d8dee8"/>
    </clipPath>
    <linearGradient id="linear-gradient-2" x1="1.694" y1="-2.892" x2="0.225" y2="1.866" gradientUnits="objectBoundingBox">
      <stop offset="0" stop-color="#ffc444"/>
      <stop offset="0.314" stop-color="#fba94a"/>
      <stop offset="0.996" stop-color="#f36f56"/>
    </linearGradient>
    <linearGradient id="linear-gradient-3" x1="0.826" y1="0.081" x2="0.001" y2="1.188" gradientUnits="objectBoundingBox">
      <stop offset="0" stop-color="#e38ddd"/>
      <stop offset="0.004" stop-color="#ff754e"/>
      <stop offset="1" stop-color="#ff1d1d"/>
    </linearGradient>
    <linearGradient id="linear-gradient-4" x1="0.5" x2="0.5" y2="1" gradientUnits="objectBoundingBox">
      <stop offset="0" stop-color="#e38ddd"/>
      <stop offset="0.004" stop-color="#ee724f"/>
      <stop offset="1" stop-color="#ff4848"/>
    </linearGradient>
    <linearGradient id="linear-gradient-5" x1="0.702" y1="-2.189" x2="0.417" y2="1.606" xlink:href="#linear-gradient-2"/>
    <linearGradient id="linear-gradient-6" x1="1.366" y1="-2.555" x2="0.129" y2="1.779" xlink:href="#linear-gradient-2"/>
    <linearGradient id="linear-gradient-7" x1="30.575" y1="-0.598" x2="29.494" y2="4.867" gradientUnits="objectBoundingBox">
      <stop offset="0" stop-color="#aa80f9"/>
      <stop offset="0.996" stop-color="#6165d7"/>
    </linearGradient>
    <linearGradient id="linear-gradient-8" x1="-35.147" y1="4.326" x2="-34.151" y2="4.326" gradientUnits="objectBoundingBox">
      <stop offset="0" stop-color="#444b8c"/>
      <stop offset="0.996" stop-color="#26264f"/>
    </linearGradient>
    <linearGradient id="linear-gradient-9" x1="54.345" y1="0.5" x2="55.345" y2="0.5" gradientUnits="objectBoundingBox">
      <stop offset="0" stop-color="#ffc444"/>
      <stop offset="0.996" stop-color="#f36f56"/>
    </linearGradient>
    <linearGradient id="linear-gradient-10" x1="-20.935" y1="40.926" x2="-19.971" y2="40.926" xlink:href="#linear-gradient-8"/>
    <linearGradient id="linear-gradient-11" x1="44.001" y1="0.5" x2="45.001" y2="0.5" xlink:href="#linear-gradient-9"/>
    <linearGradient id="linear-gradient-12" x1="17.635" y1="-0.249" x2="16.997" y2="1.807" xlink:href="#linear-gradient-7"/>
    <linearGradient id="linear-gradient-13" x1="17.789" y1="1.627" x2="18.042" y2="0.675" xlink:href="#linear-gradient-7"/>
    <linearGradient id="linear-gradient-14" x1="21.656" y1="-0.53" x2="20.831" y2="2.631" xlink:href="#linear-gradient-7"/>
    <linearGradient id="linear-gradient-15" x1="17.4" y1="0.5" x2="18.4" y2="0.5" xlink:href="#linear-gradient-9"/>
    <linearGradient id="linear-gradient-16" x1="25.792" y1="0.5" x2="26.792" y2="0.5" xlink:href="#linear-gradient-9"/>
    <linearGradient id="linear-gradient-17" x1="10.23" y1="0.448" x2="10.21" y2="2.095" xlink:href="#linear-gradient-9"/>
    <linearGradient id="linear-gradient-18" x1="50.251" y1="10.246" x2="51.269" y2="10.246" xlink:href="#linear-gradient-9"/>
    <linearGradient id="linear-gradient-19" x1="248.553" y1="76.238" x2="249.659" y2="76.238" xlink:href="#linear-gradient-9"/>
    <linearGradient id="linear-gradient-20" x1="-0.6" y1="0.5" x2="0.4" y2="0.5" gradientUnits="objectBoundingBox">
      <stop offset="0.004" stop-color="#26264f"/>
      <stop offset="1" stop-color="#444b8c"/>
    </linearGradient>
    <linearGradient id="linear-gradient-21" x1="110.73" y1="3.166" x2="110.933" y2="7.94" xlink:href="#linear-gradient-20"/>
    <linearGradient id="linear-gradient-22" x1="421.67" y1="1.152" x2="421.533" y2="-5.073" gradientUnits="objectBoundingBox">
      <stop offset="0" stop-color="#893976"/>
      <stop offset="1" stop-color="#311944"/>
    </linearGradient>
    <linearGradient id="linear-gradient-23" x1="189.197" y1="0.389" x2="189.517" y2="3.362" xlink:href="#linear-gradient-20"/>
    <linearGradient id="linear-gradient-24" x1="315.921" y1="1.353" x2="315.825" y2="-3.033" xlink:href="#linear-gradient-22"/>
    <linearGradient id="linear-gradient-25" x1="60.437" y1="0.5" x2="61.437" y2="0.5" gradientUnits="objectBoundingBox">
      <stop offset="0" stop-color="#ab316d"/>
      <stop offset="1" stop-color="#792d3d"/>
    </linearGradient>
    <linearGradient id="linear-gradient-26" x1="65.001" y1="0.5" x2="66.001" y2="0.5" xlink:href="#linear-gradient-25"/>
    <linearGradient id="linear-gradient-27" x1="30.801" y1="0.5" x2="31.801" y2="0.5" xlink:href="#linear-gradient-25"/>
    <linearGradient id="linear-gradient-28" x1="0.577" y1="0.398" x2="1.253" y2="-0.235" xlink:href="#linear-gradient-20"/>
    <linearGradient id="linear-gradient-29" x1="75.371" y1="12.425" x2="76.016" y2="12.425" xlink:href="#linear-gradient-22"/>
    <linearGradient id="linear-gradient-30" x1="16.43" y1="4.801" x2="16.996" y2="8.986" gradientUnits="objectBoundingBox">
      <stop offset="0" stop-color="#ff9085"/>
      <stop offset="1" stop-color="#fb6fbb"/>
    </linearGradient>
    <linearGradient id="linear-gradient-31" x1="14.69" y1="0.133" x2="15.061" y2="1.569" xlink:href="#linear-gradient-30"/>
    <linearGradient id="linear-gradient-32" x1="37.993" y1="0.342" x2="37.591" y2="0.984" gradientUnits="objectBoundingBox">
      <stop offset="0.004" stop-color="#6165d7"/>
      <stop offset="1" stop-color="#aa80f9"/>
    </linearGradient>
    <linearGradient id="linear-gradient-33" x1="38.573" y1="0.302" x2="37.569" y2="0.823" xlink:href="#linear-gradient-20"/>
    <linearGradient id="linear-gradient-34" x1="133.428" y1="-2.991" x2="133.004" y2="0.705" xlink:href="#linear-gradient-7"/>
    <linearGradient id="linear-gradient-35" x1="52.802" y1="0.247" x2="51.422" y2="0.781" xlink:href="#linear-gradient-20"/>
    <linearGradient id="linear-gradient-36" x1="105.181" y1="0.5" x2="106.181" y2="0.5" xlink:href="#linear-gradient-22"/>
    <linearGradient id="linear-gradient-37" x1="0" y1="0.5" x2="1" y2="0.5" xlink:href="#linear-gradient-30"/>
    <linearGradient id="linear-gradient-38" x1="33.958" y1="0.179" x2="34.831" y2="2.375" xlink:href="#linear-gradient-30"/>
    <linearGradient id="linear-gradient-39" x1="64.7" y1="11.202" x2="65.458" y2="9.543" xlink:href="#linear-gradient-22"/>
    <linearGradient id="linear-gradient-40" x1="190.436" y1="16.539" x2="194.409" y2="14.65" xlink:href="#linear-gradient-22"/>
    <linearGradient id="linear-gradient-41" x1="14.227" y1="-1.959" x2="14.968" y2="-0.313" xlink:href="#linear-gradient-7"/>
    <linearGradient id="linear-gradient-42" x1="-1.785" y1="2.397" x2="-2.418" y2="0.606" xlink:href="#linear-gradient-7"/>
    <linearGradient id="linear-gradient-43" x1="-4.442" y1="-1.571" x2="-3.507" y2="0.681" xlink:href="#linear-gradient-7"/>
    <filter id="Path_462" x="163.194" y="7.846" width="64.684" height="64.684" filterUnits="userSpaceOnUse">
      <feOffset dy="3" input="SourceAlpha"/>
      <feGaussianBlur stdDeviation="3" result="blur"/>
      <feFlood flood-opacity="0.161"/>
      <feComposite operator="in" in2="blur"/>
      <feComposite in="SourceGraphic"/>
    </filter>
    <linearGradient id="linear-gradient-44" x1="11.631" y1="0.041" x2="9.656" y2="3.832" gradientUnits="objectBoundingBox">
      <stop offset="0" stop-color="#ffc444"/>
      <stop offset="0" stop-color="#f36f56"/>
      <stop offset="0.314" stop-color="#fba94a"/>
      <stop offset="1" stop-color="#f36f56"/>
    </linearGradient>
    <linearGradient id="linear-gradient-45" x1="4.668" y1="1.11" x2="5.392" y2="2.59" xlink:href="#linear-gradient-9"/>
    <linearGradient id="linear-gradient-46" x1="7.919" y1="1.236" x2="9.164" y2="2.991" xlink:href="#linear-gradient-9"/>
    <filter id="Path_469" x="252.145" y="78.964" width="61.583" height="49.542" filterUnits="userSpaceOnUse">
      <feOffset dy="3" input="SourceAlpha"/>
      <feGaussianBlur stdDeviation="3" result="blur-2"/>
      <feFlood flood-opacity="0.161"/>
      <feComposite operator="in" in2="blur-2"/>
      <feComposite in="SourceGraphic"/>
    </filter>
  </defs>
  <g id="img_feature_2" transform="translate(3349.201 -561.327)">
    <g id="Group_500" data-name="Group 500" transform="translate(-3198.047 573.295)">
      <g id="Group_490" data-name="Group 490" transform="translate(0 0)">
        <g id="Group_489" data-name="Group 489">
          <path id="Path_383" data-name="Path 383" d="M-2089.8,581.236c-5.231-3.65-12.842-5.247-19.159-5.176-44.78.5-43.631,94.094-35.1,114.331s4.671,27.429-29.5,41.19-15.627,33.329-10.346,45.229,14.593,21.554-9.967,35.828-15.058,21.086-15.058,21.086,51.1,44.344,47.227,29.121-1.07-38.92,41.047-44.163c18.141-2.258,45.3-13.232,49.875-33.231,1.064-4.657,1.495-11.672.015-16.28-2.052-6.392-6.751-11.176-9.63-17.114-6.709-13.839,6.313-25.447,13.516-35.656,3.761-5.33,7.51-10.788,10.236-16.737,5.661-12.351,2.139-24.81-5.976-35.1-3.891-4.935-9.158-10.077-11.179-16.177-2.172-6.554-1.508-15.806-1.688-22.717a144.774,144.774,0,0,0-.816-16.22C-2077.694,599.436-2081.06,587.338-2089.8,581.236Z" transform="translate(2210.74 -576.058)" fill="#eaedf3"/>
          <g id="Group_488" data-name="Group 488" clip-path="url(#clip-path)">
            <g id="Group_487" data-name="Group 487" transform="translate(-0.609 -11.818)" opacity="0.8" style="mix-blend-mode: soft-light;isolation: isolate">
              <g id="Group_482" data-name="Group 482">
                <path id="Path_384" data-name="Path 384" d="M-2214.393,783.9a.66.66,0,0,1-.831-.249.66.66,0,0,1,.205-.911,318.691,318.691,0,0,0,39.9-31.2c19.1-17.517,43.618-44.678,51.992-74.6,6.994-24.99,11.9-65.754,13.449-111.84,1.392-41.326-.344-71.663-2.826-77.117a.66.66,0,0,1,.327-.875.66.66,0,0,1,.875.328c2.9,6.38,4.2,40.514,2.944,77.709-1.556,46.187-6.475,87.065-13.5,112.152-8.46,30.228-33.159,57.6-52.389,75.232a320.016,320.016,0,0,1-40.072,31.326A.645.645,0,0,1-2214.393,783.9Z" transform="translate(2215.326 -487.049)" fill="#fff"/>
              </g>
              <g id="Group_483" data-name="Group 483" transform="translate(62.274 32.448)">
                <path id="Path_385" data-name="Path 385" d="M-1702.335,784.989a.593.593,0,0,1-.838-.246c-.2-.437-20.466-43.725-42.7-52.048a.635.635,0,0,1-.378-.831.66.66,0,0,1,.854-.377c22.739,8.513,42.581,50.893,43.417,52.7a.6.6,0,0,1-.355.8Z" transform="translate(1746.291 -731.444)" fill="#fff"/>
              </g>
              <g id="Group_484" data-name="Group 484" transform="translate(101.456 101.776)">
                <path id="Path_386" data-name="Path 386" d="M-1450.247,1290.269a.661.661,0,0,1-.748-.141.661.661,0,0,1,.013-.934,209.5,209.5,0,0,1,25.9-20.788c19.438-13.038,34.789-17.493,45.628-13.241a.66.66,0,0,1,.374.856.66.66,0,0,1-.856.374c-24.937-9.782-69.671,33.31-70.12,33.747A.656.656,0,0,1-1450.247,1290.269Z" transform="translate(1451.181 -1253.606)" fill="#fff"/>
              </g>
              <g id="Group_485" data-name="Group 485" transform="translate(18.442 162.787)">
                <path id="Path_387" data-name="Path 387" d="M-2036.981,1798.991a.667.667,0,0,1-.209.056.661.661,0,0,1-.722-.593,251.923,251.923,0,0,0-7.6-39.177c-5.2-18.205-14.693-40.764-30.419-44.85a.661.661,0,0,1-.473-.805.66.66,0,0,1,.805-.473c13.113,3.407,23.665,18.811,31.362,45.783a253.348,253.348,0,0,1,7.639,39.395A.661.661,0,0,1-2036.981,1798.991Z" transform="translate(2076.425 -1713.126)" fill="#fff"/>
              </g>
              <g id="Group_486" data-name="Group 486" transform="translate(81.611 173.599)">
                <path id="Path_388" data-name="Path 388" d="M-1599.713,1836.428a.661.661,0,0,1-.771-.167.66.66,0,0,1,.062-.932c1.99-1.741,48.977-42.613,68.767-40.7a.661.661,0,0,1,.594.721.66.66,0,0,1-.721.594c-19.229-1.854-67.287,39.961-67.771,40.383A.662.662,0,0,1-1599.713,1836.428Z" transform="translate(1600.647 -1794.56)" fill="#fff"/>
              </g>
            </g>
          </g>
        </g>
      </g>
      <g id="Group_499" data-name="Group 499" transform="translate(3.869 36.278)">
        <g id="Group_498" data-name="Group 498">
          <path id="Path_390" data-name="Path 390" d="M-1968.075,864.434c-3.249-5.489-9.514-10.1-15.293-12.648-40.965-18.093-78.693,67.564-79.311,89.517s-7.112,26.9-43.911,25.269-28.031,23.86-28.155,36.879,4.352,25.663-23.914,28.479-22.441,12.953-22.441,12.953,28.136,61.529,30.919,46.07,15.15-35.866,55.655-23.189c17.446,5.46,46.715,6.725,59.161-9.582,2.9-3.8,6.2-10,6.759-14.81.78-6.668-1.515-12.969-1.675-19.566-.373-15.375,16.287-20.545,27.074-26.853,5.631-3.293,11.3-6.708,16.25-10.993,10.269-8.9,12.225-21.694,9.1-34.422-1.5-6.1-4.161-12.965-3.473-19.355.739-6.864,5.176-15.01,7.875-21.375a144.847,144.847,0,0,0,5.977-15.1C-1964.593,886.015-1962.644,873.61-1968.075,864.434Z" transform="translate(2181.596 -849.294)" fill="url(#linear-gradient)"/>
          <g id="Group_497" data-name="Group 497" clip-path="url(#clip-path-2)">
            <g id="Group_496" data-name="Group 496" transform="translate(-12.851 -7.895)" opacity="0.8" style="mix-blend-mode: soft-light;isolation: isolate">
              <g id="Group_491" data-name="Group 491">
                <path id="Path_391" data-name="Path 391" d="M-2277.728,1017.6a.66.66,0,0,1-.654-.571.66.66,0,0,1,.565-.744,318.7,318.7,0,0,0,49.241-11.865c24.638-8.031,58.208-22.593,78.226-46.356,16.719-19.847,38.068-54.918,58.574-96.22,18.388-37.036,29.376-65.367,29.376-71.359a.66.66,0,0,1,.66-.661.66.66,0,0,1,.661.661c0,7.01-12.964,38.613-29.514,71.947-20.551,41.393-41.963,76.559-58.746,96.484-20.222,24.007-54.041,38.683-78.85,46.768a320.018,320.018,0,0,1-49.448,11.91A.647.647,0,0,1-2277.728,1017.6Z" transform="translate(2278.388 -789.828)" fill="#fff"/>
              </g>
              <g id="Group_492" data-name="Group 492" transform="translate(165.697 12.767)">
                <path id="Path_392" data-name="Path 392" d="M-1012.241,952.819a.635.635,0,0,1-.66-.626c0-.481-.513-48.3-17.3-65.087a.651.651,0,0,1,0-.927.66.66,0,0,1,.934,0c17.169,17.168,17.671,64.013,17.684,66a.636.636,0,0,1-.656.637Z" transform="translate(1030.392 -885.987)" fill="#fff"/>
              </g>
              <g id="Group_493" data-name="Group 493" transform="translate(157.966 114.372)">
                <path id="Path_393" data-name="Path 393" d="M-1087.96,1662.509a.661.661,0,0,1-.622-.438.661.661,0,0,1,.4-.845,209.455,209.455,0,0,1,32.181-8.192c23.093-3.814,38.91-1.509,47.013,6.852a.66.66,0,0,1-.015.934.661.661,0,0,1-.934-.015c-18.643-19.234-77.211,1.454-77.8,1.665A.66.66,0,0,1-1087.96,1662.509Z" transform="translate(1088.62 -1651.249)" fill="#fff"/>
              </g>
              <g id="Group_494" data-name="Group 494" transform="translate(71.802 113.227)">
                <path id="Path_394" data-name="Path 394" d="M-1736.932,1736.906a.655.655,0,0,1-.214-.036.66.66,0,0,1-.411-.839,251.927,251.927,0,0,0,9.314-38.806c2.812-18.722,3.515-43.188-9.1-53.423a.661.661,0,0,1-.1-.929.66.66,0,0,1,.929-.1c10.523,8.533,13.745,26.925,9.577,54.663a253.3,253.3,0,0,1-9.368,39.02A.661.661,0,0,1-1736.932,1736.906Z" transform="translate(1737.593 -1642.629)" fill="#fff"/>
              </g>
              <g id="Group_495" data-name="Group 495" transform="translate(107.994 174.649)">
                <path id="Path_395" data-name="Path 395" d="M-1464.343,2118.114a.661.661,0,0,1-.632-.471.66.66,0,0,1,.443-.822c2.533-.76,62.231-18.494,79.451-8.558a.661.661,0,0,1,.242.9.66.66,0,0,1-.9.242c-16.733-9.654-77.8,8.495-78.411,8.679A.653.653,0,0,1-1464.343,2118.114Z" transform="translate(1465.003 -2105.247)" fill="#fff"/>
              </g>
            </g>
          </g>
        </g>
      </g>
    </g>
    <g id="Group_503" data-name="Group 503" transform="translate(-3307.174 726.117)">
      <path id="Path_397" data-name="Path 397" d="M-3013.284,1860.805l-19.379,42.235,29.151-2.036Z" transform="translate(3032.663 -1843.05)" fill="url(#linear-gradient-2)"/>
      <g id="Group_502" data-name="Group 502" transform="translate(19.565 0)">
        <g id="Group_501" data-name="Group 501">
          <path id="Path_398" data-name="Path 398" d="M-2044.354,1742.862v144.352l-124.489,7.276-.267.006-8.084-82.1,8.064-85.318.292.018Z" transform="translate(2271.211 -1727.078)" fill="url(#linear-gradient-3)"/>
          <path id="Path_399" data-name="Path 399" d="M-2783.4,1727.078v167.417l-101.9-11.453V1744.833l20.753-3.632,36.581-6.366Z" transform="translate(2885.302 -1727.078)" fill="url(#linear-gradient-4)"/>
          <path id="Path_400" data-name="Path 400" d="M-2693.2,1785.513l-1.377,20.4-34.4,2.249-.822-16.281Z" transform="translate(2750.443 -1777.755)" fill="#fff" opacity="0.8"/>
        </g>
        <path id="Path_401" data-name="Path 401" d="M-2118.3,1727.1l55.738,51.871,108.509,6.081-39.765-42.172Z" transform="translate(2220.137 -1727.095)" fill="url(#linear-gradient-5)"/>
        <path id="Path_402" data-name="Path 402" d="M-1992.847,1873.74v13.589L-2117.8,1894.6V1727.211c0,1.05,1.011,45.9,23.331,53.94,22.575,8.132,42,21.041,42,57.026C-2052.474,1867.01-2012.674,1860.7-1992.847,1873.74Z" transform="translate(2219.704 -1727.194)" opacity="0.321" fill="url(#linear-gradient-6)" style="mix-blend-mode: multiply;isolation: isolate"/>
        <path id="Path_403" data-name="Path 403" d="M-2783.4,1734.547v166.425l-101.9-11.453v-.669c1.383-22.326,49.853-26.7,48.2-46.071-1.706-19.949,2.535-33.638,24.683-46.153C-2792.082,1785.13-2784.783,1741.617-2783.4,1734.547Z" transform="translate(2885.301 -1733.555)" fill="#fff" opacity="0.2" style="mix-blend-mode: soft-light;isolation: isolate"/>
      </g>
    </g>
    <g id="Group_510" data-name="Group 510" transform="translate(-3079.57 734.695)">
      <path id="Path_404" data-name="Path 404" d="M-1148.69,1948.306c-2.953-3.153,5.222-15,9.6-20.188,3.823-4.534,7.751-9.195,12.576-8.6,4.236.518,8.358,4.985,8.6,9.267C-1117.247,1940.3-1144.492,1952.788-1148.69,1948.306Z" transform="translate(1171.768 -1902.498)" fill="url(#linear-gradient-7)"/>
      <path id="Path_405" data-name="Path 405" d="M-939.251,3052.463c.556.452.658,1.58.725,2.318a1.824,1.824,0,0,1,.008.611c-.269.849-1.915.938-4.5,1.2-4.08.417-5.294.738-5.613.131-.3-.569.425-1.5.506-1.6a3.743,3.743,0,0,1,2.017-1.1c1.925-.633,3.225-.98,3.619-1.085C-940.027,3052.284-939.616,3052.167-939.251,3052.463Z" transform="translate(997.785 -2884.936)" fill="url(#linear-gradient-8)"/>
      <path id="Path_406" data-name="Path 406" d="M-898.474,3025.4l-.408,4.649a2.525,2.525,0,0,0,2.6.32l1.049-4.57Z" transform="translate(954.582 -2861.597)" fill="url(#linear-gradient-9)"/>
      <path id="Path_407" data-name="Path 407" d="M-1190.568,3044.506a2.3,2.3,0,0,1,.239,2.758c-.57.656-1.426.164-3.854.236-2.6.078-3.281.692-5.048.2-.714-.2-1.975-.676-1.952-1.187.017-.358.659-.544,2.8-1.262a27.729,27.729,0,0,1,3.678-1.183C-1193.078,3043.805-1191.448,3043.535-1190.568,3044.506Z" transform="translate(1216.747 -2877.576)" fill="url(#linear-gradient-10)"/>
      <path id="Path_408" data-name="Path 408" d="M-1142.3,3017.014l-1.305,4.34a2.525,2.525,0,0,0,2.564.517l1.938-4.213Z" transform="translate(1166.815 -2854.327)" fill="url(#linear-gradient-11)"/>
      <path id="Path_409" data-name="Path 409" d="M-1130.379,2301.074a406.61,406.61,0,0,1-3.57,48.8,406.571,406.571,0,0,1-9.277,47.515l4.994,1.344a42.353,42.353,0,0,0,12.122-18.9c1.6-5.437,1.064-8.231,2.076-14.919,1.611-10.649,4.876-16.228,8.249-24.814a141.306,141.306,0,0,0,8.537-34.177Z" transform="translate(1166.484 -2233.443)" fill="#26264f"/>
      <path id="Path_410" data-name="Path 410" d="M-933.286,2290.156q1.528,27.827,2.492,56.679.715,21.646,1.059,42.739l5.1.63a59.4,59.4,0,0,0,5.321-13.731c1.816-7.281,1.4-11.6,2.192-19.15.893-8.463,2.191-10.307,4.49-20.983,4.666-21.667,7-32.5,1.794-39.24C-912.526,2294.912-917.823,2289.424-933.286,2290.156Z" transform="translate(984.418 -2223.916)" fill="#26264f"/>
      <path id="Path_411" data-name="Path 411" d="M-1025.142,1918.315a79.21,79.21,0,0,0-16.966-2.833c-10.195-.576-15.292-.865-18.9,1.563-8.343,5.607-1.884,18.548-5.3,50.628-.488,4.581-.6,9.2-.95,13.789-.585,7.606-.718,8.019-.189,8.789,3.318,4.833,15.7-2.457,33.847.425,10.154,1.612,14.759,5.327,17.541,2.647,3.244-3.124.461-11.528-1.934-18.762-2.75-8.3-4.448-8.411-6.009-14.664-1.631-6.537-.645-9.9-.391-20.21A182.587,182.587,0,0,0-1025.142,1918.315Z" transform="translate(1101.057 -1898.7)" fill="url(#linear-gradient-12)"/>
      <g id="Group_504" data-name="Group 504" transform="translate(35.502 31.309)">
        <path id="Path_412" data-name="Path 412" d="M-1035.272,2076.038c4.743-.371,7.82,2.311,11.914.221,5.614-2.866,7.418-11.782,7.06-18.093-.544-9.588-6.018-12.115-5.075-18.313.51-3.352,2.9-7.8,11.495-12.348.115,3.826.093,7.088.029,9.679-.254,10.307-1.241,13.673.391,20.21,1.561,6.254,3.259,6.36,6.009,14.664,2.4,7.234,5.178,15.638,1.934,18.762-2.782,2.679-7.387-1.035-17.541-2.648-15.637-2.483-26.986,2.58-31.952.938C-1045.006,2079.2-1039.564,2076.374-1035.272,2076.038Z" transform="translate(1051.007 -2027.506)" fill="url(#linear-gradient-13)"/>
      </g>
      <path id="Path_413" data-name="Path 413" d="M-872.008,1937.033c3.387-2.783,10.2.367,12.02,1.209,10.154,4.7,19.27,17.353,17.011,30.728-.339,2.006-1.91,11.388-9.854,15.934-7.169,4.1-16.848,3.047-24.6-2.763l-3.18-2.821-3.128-3.381a25.108,25.108,0,0,1,8.335-4.593c5.157-1.664,8.911,1.322,11.3-.948,1.651-1.567,1.655-4.334,1.247-6.011-.822-3.38-3.8-4.33-6.288-6.73C-874.987,1952.023-876.064,1940.366-872.008,1937.033Z" transform="translate(941.453 -1916.76)" fill="url(#linear-gradient-14)"/>
      <g id="Group_505" data-name="Group 505" transform="translate(21.268 63.173)">
        <path id="Path_414" data-name="Path 414" d="M-1158.11,2268.442l41.017-.613-10.907,5.264-30.214-1.978Z" transform="translate(1158.215 -2267.784)" fill="#444b8c"/>
        <path id="Path_415" data-name="Path 415" d="M-931.44,2268.626h0a1.826,1.826,0,0,1-1.2,1.716l-13.106,5.138-.06-3.562,12.92-4.382A1.134,1.134,0,0,1-931.44,2268.626Z" transform="translate(974.009 -2267.491)" fill="#26264f"/>
      </g>
      <path id="Path_416" data-name="Path 416" d="M-934.765,2237.556c.279-.062-1.358-3.323-2.642-2.947s-7.567,4.017-8.138,5.517l-.571,1.5a14.059,14.059,0,0,0,4.44-.357C-939.976,2240.7-937.031,2238.061-934.765,2237.556Z" transform="translate(995.544 -2175.776)" fill="url(#linear-gradient-15)"/>
      <g id="Group_507" data-name="Group 507" transform="translate(0 40.031)">
        <g id="Group_506" data-name="Group 506">
          <path id="Path_417" data-name="Path 417" d="M-1269.724,2095.773l2.891,26.324a2.483,2.483,0,0,1-2.085,2.218l-42.413-2.6a1.487,1.487,0,0,1-1.4-1.234l-5.323-25.425c-.159-.925,1.5-1.881,2.443-1.855l44.446,1.25A1.487,1.487,0,0,1-1269.724,2095.773Z" transform="translate(1318.105 -2093.198)" fill="#26264f"/>
          <path id="Path_418" data-name="Path 418" d="M-1270.988,2101.555l2.891,26.324a1.488,1.488,0,0,1-1.548,1.648l-42.95-2.034a1.487,1.487,0,0,1-1.4-1.233l-4.388-25.541a1.487,1.487,0,0,1,1.507-1.738l44.447,1.25A1.486,1.486,0,0,1-1270.988,2101.555Z" transform="translate(1318.4 -2098.213)" fill="#26264f"/>
        </g>
        <path id="Path_419" data-name="Path 419" d="M-1271.359,2128.9c3.75-1.59,2.427-4.62,6.855-8.4,5.842-4.983,11.8-2.822,13.882-6.684.649-1.2.959-3.074-.172-6.1l3.219.091a1.486,1.486,0,0,1,1.436,1.324l2.891,26.324a1.487,1.487,0,0,1-1.548,1.648l-42.95-2.033a1.487,1.487,0,0,1-1.4-1.234l-.606-3.524a16.228,16.228,0,0,1,4.677-1.753C-1278.768,2127.28-1275.677,2130.731-1271.359,2128.9Z" transform="translate(1293.551 -2105.789)" fill="#26264f" opacity="0.3" style="mix-blend-mode: multiply;isolation: isolate"/>
      </g>
      <path id="Path_420" data-name="Path 420" d="M-1298.526,2280.892a.371.371,0,0,1,.333-.489c1-.051,3.335-.072,4.622.716,1.671,1.024,3.833,2.892,2.013,3.834l-1.7.881a.365.365,0,0,1-.249.034c-.6-.133-3.146-.7-3.423-.837A25.579,25.579,0,0,1-1298.526,2280.892Z" transform="translate(1301.181 -2215.498)" fill="url(#linear-gradient-16)"/>
      <g id="Group_509" data-name="Group 509" transform="translate(47.743 0)">
        <path id="Path_421" data-name="Path 421" d="M-948.369,1834.2a35.327,35.327,0,0,0,.631,7.061c.365,1.881.629,2.366.965,2.761.506.594,1.272,1.091,5.6,2.165,2.357.584,2.66.568,2.712.8.254,1.141-6.173,5.029-12.812,4.092-4.063-.574-7.76-2.892-7.533-4.109s4.287-.568,5.5-2.784c.842-1.542-.1-3.731-1.217-5.544C-953.444,1836.618-949.449,1836.222-948.369,1834.2Z" transform="translate(958.814 -1828.554)" fill="url(#linear-gradient-17)"/>
        <g id="Group_508" data-name="Group 508" transform="translate(2.197)">
          <path id="Path_422" data-name="Path 422" d="M-925.179,1796.805a4.274,4.274,0,0,1,1.725-4.591,4.656,4.656,0,0,1,3.648-.28c2.546.588,5.269,2.706,5.542,5.339.162,1.56-2.2,3.843-2.593,4.264-.445.477-.956.513-1.516.793-.777.389-2,1.013-4.007,2.068a10.709,10.709,0,0,0,.035-1.857,9.455,9.455,0,0,0-.468-2.363C-923.536,1798.171-924.727,1798.247-925.179,1796.805Z" transform="translate(927.577 -1791.69)" fill="#26264f"/>
          <path id="Path_423" data-name="Path 423" d="M-930.264,1831.623a5.8,5.8,0,0,1-5.673.719c-2.8-1.206-.933-7.783,1.383-8.5a3.84,3.84,0,0,1,2.958.641c.529.374.641.689,1.517,1.282.808.548,1.094.538,1.283.86.235.4.235,1.184-.995,2.863a1.655,1.655,0,0,1,1.863.047,1.042,1.042,0,0,1,.25.508C-927.539,1830.923-928.543,1831.622-930.264,1831.623Z" transform="translate(937.997 -1819.499)" fill="url(#linear-gradient-18)"/>
          <path id="Path_424" data-name="Path 424" d="M-932.8,1842.818c-.175.054.064.72-.164,1.461a3.724,3.724,0,0,1-4,2.253c-.9-.223-.948-.828-2.324-1.488a6.947,6.947,0,0,0-2.129-.621,3.658,3.658,0,0,0-.347,4.182,3.811,3.811,0,0,0,3.105,1.226,4.354,4.354,0,0,0,2.962-.888c1.132-.976.71-1.956,1.8-2.5a7.052,7.052,0,0,0,1.949-.891,4.24,4.24,0,0,0,.484-.441C-931.913,1844.066-932.544,1842.74-932.8,1842.818Z" transform="translate(942.265 -1836.027)" fill="#26264f"/>
          <path id="Path_425" data-name="Path 425" d="M-931.23,1861.576a3.7,3.7,0,0,0,1.6.864c.053.016.1.051.1.081a1.4,1.4,0,0,1-1.429-.082c-.4-.286-.6-.835-.5-.922C-931.423,1861.481-931.324,1861.522-931.23,1861.576Z" transform="translate(932.921 -1852.234)" fill="url(#linear-gradient-19)"/>
        </g>
      </g>
    </g>
    <g id="Group_522" data-name="Group 522" transform="translate(-3349.201 628.573)">
      <g id="Group_519" data-name="Group 519" transform="translate(0 160.104)">
        <g id="Group_511" data-name="Group 511" transform="translate(106.693 3.292)">
          <path id="Path_426" data-name="Path 426" d="M-2545.042,2343.777a.569.569,0,0,0,.569-.569V2223.633a.569.569,0,0,0-.569-.569.569.569,0,0,0-.569.569v119.574A.569.569,0,0,0-2545.042,2343.777Z" transform="translate(2545.611 -2223.064)" fill="#26264f"/>
        </g>
        <g id="Group_512" data-name="Group 512" transform="translate(74.479 0.277)">
          <path id="Path_427" data-name="Path 427" d="M-2787.672,2316.572a.569.569,0,0,0,.569-.569V2200.924a.569.569,0,0,0-.569-.569.569.569,0,0,0-.569.569V2316A.569.569,0,0,0-2787.672,2316.572Z" transform="translate(2788.241 -2200.355)" fill="#26264f"/>
        </g>
        <g id="Group_513" data-name="Group 513" transform="translate(0 2.056)">
          <path id="Path_428" data-name="Path 428" d="M-3348.632,2333.551a.57.57,0,0,0,.536-.375l43.063-118.657a.57.57,0,0,0-.341-.73.569.569,0,0,0-.729.341l-43.063,118.657a.57.57,0,0,0,.342.729A.567.567,0,0,0-3348.632,2333.551Z" transform="translate(3349.201 -2213.754)" fill="#26264f"/>
        </g>
        <g id="Group_514" data-name="Group 514" transform="translate(31.791 4.896)">
          <path id="Path_429" data-name="Path 429" d="M-3109.191,2361.382a.57.57,0,0,0,.544-.4l38.65-125.1a.569.569,0,0,0-.376-.712.568.568,0,0,0-.712.375l-38.65,125.1a.57.57,0,0,0,.376.712A.568.568,0,0,0-3109.191,2361.382Z" transform="translate(3109.761 -2235.14)" fill="#26264f"/>
        </g>
        <path id="Path_430" data-name="Path 430" d="M-2991.744,2203.743l32.316,2.392v.727l-36.932,1.656-27.6-3.382v-.727Z" transform="translate(3067.146 -2203.016)" fill="#26264f"/>
        <path id="Path_431" data-name="Path 431" d="M-2991.744,2198.268l32.316,3.119-36.932,1.656-27.6-3.383Z" transform="translate(3067.146 -2198.268)" fill="url(#linear-gradient-20)"/>
        <g id="Group_515" data-name="Group 515" transform="translate(9.382 94.862)">
          <path id="Path_432" data-name="Path 432" d="M-3247.2,2921.958a.569.569,0,0,0,.55-.425.57.57,0,0,0-.406-.7l-30.77-8.073a.571.571,0,0,0-.7.406.569.569,0,0,0,.406.7l30.77,8.073A.568.568,0,0,0-3247.2,2921.958Z" transform="translate(3278.537 -2912.747)" fill="#26264f"/>
        </g>
        <g id="Group_516" data-name="Group 516" transform="translate(18.671 69.269)">
          <path id="Path_433" data-name="Path 433" d="M-3177.809,2726.472a.569.569,0,0,0,.56-.47.569.569,0,0,0-.461-.66l-30.2-5.347a.569.569,0,0,0-.66.462.57.57,0,0,0,.461.66l30.2,5.347A.581.581,0,0,0-3177.809,2726.472Z" transform="translate(3208.577 -2719.986)" fill="#26264f"/>
        </g>
        <g id="Group_517" data-name="Group 517" transform="translate(28.746 41.66)">
          <path id="Path_434" data-name="Path 434" d="M-3102.936,2516.863a.534.534,0,0,1-.068,0l-29.226-3.767a.528.528,0,0,1-.457-.592.528.528,0,0,1,.591-.456l29.226,3.767a.528.528,0,0,1,.457.592A.529.529,0,0,1-3102.936,2516.863Z" transform="translate(3132.69 -2512.039)" fill="#26264f"/>
        </g>
        <g id="Group_518" data-name="Group 518" transform="translate(36.301 20.843)">
          <path id="Path_435" data-name="Path 435" d="M-3047.784,2360.612a.56.56,0,0,1-.082-.007l-27.478-4.3a.529.529,0,0,1-.44-.6.529.529,0,0,1,.6-.44l27.478,4.3a.529.529,0,0,1,.44.6A.529.529,0,0,1-3047.784,2360.612Z" transform="translate(3075.791 -2355.256)" fill="#26264f"/>
        </g>
      </g>
      <g id="Group_521" data-name="Group 521" transform="translate(24.501 0)">
        <path id="Path_436" data-name="Path 436" d="M-2692.678,2173.436s7.618,4.247,7.721,4.883-4.989-.4-7.084-.393-3.789-.747-3.562-1.73,1.055-3.447,1.055-3.447Z" transform="translate(2757.899 -2016.033)" fill="url(#linear-gradient-21)"/>
        <path id="Path_437" data-name="Path 437" d="M-2686.414,2150.589l-.473,3.915a2.479,2.479,0,0,1-2.058-.089l-.353-4.293Z" transform="translate(2752.413 -1996.409)" fill="url(#linear-gradient-22)"/>
        <path id="Path_438" data-name="Path 438" d="M-2949.862,2153.033l-.9,1.624a2.132,2.132,0,0,0-.207,1.518c.316,1.35.948,3.981,1.223,4.667.375.935,5.407,1.49,5.407,1.49s.449-.706-.6-1.559-1.716-.987-2.085-2.245a36.617,36.617,0,0,1-.615-4.818Z" transform="translate(2979.395 -1998.935)" fill="url(#linear-gradient-23)"/>
        <path id="Path_439" data-name="Path 439" d="M-2940.407,2118.916a56.446,56.446,0,0,0-1.947,5.779s-.523.748-1.517-.356-.45-.5-.45-.5l.187-5.394Z" transform="translate(2973.705 -1968.943)" fill="url(#linear-gradient-24)"/>
        <path id="Path_440" data-name="Path 440" d="M-2755.247,1524.478c.411,11.677.427,24.363-.174,37.916-.676,15.261-2.036,29.366-3.749,42.153-.637.023-1.306.026-2.006,0-.472-.014-.929-.04-1.372-.074a105.627,105.627,0,0,1-2.881-10.3,109.73,109.73,0,0,1-2.011-12.063c-1.5-13.225.257-14.379-.958-24.18-1.076-8.68-2.607-9.019-4.4-21.344-1.949-13.372-.5-15.378.208-16.1C-2769.59,1517.4-2762.532,1519.5-2755.247,1524.478Z" transform="translate(2825.677 -1449.117)" fill="url(#linear-gradient-25)"/>
        <path id="Path_441" data-name="Path 441" d="M-2772.593,1520.495c2.865-2.943,9.419-1.161,16.34,3.33-7.963,9.619-8.831,15.858-7.876,19.907,1.079,4.576,4.359,5.894,4.346,10.9-.016,6.149-4.979,7.777-4.873,14.284.07,4.3,2.25,4.258,2.766,9.572.61,6.288-2.24,8.454-1.317,13.106.4,2,1.53,4.617,4.757,7.311-.233,1.911-.471,3.8-.72,5.657-.637.023-1.306.026-2.005,0-.472-.014-.93-.04-1.372-.074a105.569,105.569,0,0,1-2.882-10.3,109.685,109.685,0,0,1-2.012-12.063c-1.5-13.225.258-14.379-.958-24.181-1.076-8.68-2.607-9.02-4.4-21.344C-2774.75,1523.225-2773.3,1521.219-2772.593,1520.495Z" transform="translate(2825.676 -1449.128)" opacity="0.3" fill="url(#linear-gradient-26)" style="mix-blend-mode: multiply;isolation: isolate"/>
        <path id="Path_442" data-name="Path 442" d="M-2918.9,1516.209a272.654,272.654,0,0,0-20.864,41.884,283.219,283.219,0,0,0-11.284,35.048,3.806,3.806,0,0,1-2.3.4,4.2,4.2,0,0,1-2.6-1.57,84.3,84.3,0,0,1-.6-18.619,71.037,71.037,0,0,1,2.342-13.994c1.893-6.826,3.194-7.21,5.663-14.431,2.563-7.5,1.942-9.366,4.4-18.747a133.479,133.479,0,0,1,5.481-16.448Z" transform="translate(2984.401 -1441.044)" fill="url(#linear-gradient-27)"/>
        <path id="Path_443" data-name="Path 443" d="M-3086.311,993.618a6.887,6.887,0,0,0-9.131,1.184c-2.617,2.823-2.778,7.031-5.9,9.548-4.167,3.361-9.6,2.712-13.27,2.273-8.847-1.057-11.146-6.018-15.27-4.307-5.167,2.145-3.868,10.894-9.119,12.527-3.51,1.091-5.134-2.492-10.057-2.561-5.784-.081-11.119,4.761-13.628,9.833-4.585,9.27-.5,20.864,4.891,27.347,4.427,5.326,12.719,10.8,18.212,8.127,4.339-2.109,4.646-8.187,8.7-8.421,2.885-.166,3.611,2.855,7.242,3.742,5.964,1.456,11.67-4.822,13.226-6.534,4.436-4.881,3.1-7.147,8.266-16.167a60.2,60.2,0,0,1,10.057-13.731c5.74-5.689,8.683-5.772,9.806-10.054.988-3.765.245-8.563-2.442-11.461A8.786,8.786,0,0,0-3086.311,993.618Z" transform="translate(3164.667 -992.4)" fill="url(#linear-gradient-28)"/>
        <path id="Path_444" data-name="Path 444" d="M-2188.185,1170.964s1.925-1.066,3.23-1.917a51.827,51.827,0,0,1,6.334-2.594s.006.66-1.139,1.165-3.394,1.235-3.334,2.026.8,1.817-.481,2.644-2.16-.573-3.251.061-2.24,1.346-2.24,1.346Z" transform="translate(2318.598 -1143.343)" fill="url(#linear-gradient-29)"/>
        <path id="Path_445" data-name="Path 445" d="M-2525.547,1151.546q.226,2.533.453,5.066a47.016,47.016,0,0,1-9.523,7.987,43.472,43.472,0,0,1-15.234,5.957c-10.339,1.817-26.846.243-28.174-7.569-1.185-6.97,7.342-15.9,9.424-17.461,4.1,2.012,7.473,5.671,11.967,8.259a27.277,27.277,0,0,0,10.545,3.615C-2536.428,1158.5-2528.389,1153.505-2525.547,1151.546Z" transform="translate(2656.011 -1125.194)" fill="url(#linear-gradient-30)"/>
        <path id="Path_446" data-name="Path 446" d="M-2997.552,1120.111c-.43,2.162-7.155,1-8.543,4.927-.745,2.106.836,3.444.9,7.021.074,4-1.834,6.278-3.3,9.428-2.145,4.614-2.152,9.137-2.168,18.181-.022,12.876,2.824,15.465.394,19.614-3.163,5.4-10.759,5.746-12.812,5.84-7.021.319-7.854-3.411-15.473-3.856-8.7-.509-9.94,4.221-16.163,2.2-5.685-1.843-7.6-6.745-12.024-5.729-2.766.634-3.5,2.889-6.11,2.645a6.545,6.545,0,0,1-5.519-5.51c-.229-3.313,3.392-7.486,9.067-7.493a16.126,16.126,0,0,0,10.151.772c6.812-1.867,10.355-8.344,14.291-15.537,2.722-4.976,7.726-14.122,7.786-26.115.024-4.946-.812-6.393.394-9.036,3.915-8.584,19.1-7.3,20.388-7.179C-3005.94,1111.285-2997.032,1117.5-2997.552,1120.111Z" transform="translate(3089.833 -1094.516)" fill="url(#linear-gradient-31)"/>
        <g id="Group_520" data-name="Group 520" transform="translate(67.123 35.483)">
          <path id="Path_447" data-name="Path 447" d="M-2630.562,1266.54l-19.076.833a.524.524,0,0,0-.464.38l-8.987,27.874c-.129.4.275,1.4.653,1.354l18.861-2.869a.527.527,0,0,0,.425-.365l9.35-26.017C-2629.668,1267.344-2630.192,1266.524-2630.562,1266.54Z" transform="translate(2659.113 -1265.625)" fill="url(#linear-gradient-32)"/>
          <path id="Path_448" data-name="Path 448" d="M-2628.375,1271.678l-19.076.832a.523.523,0,0,0-.464.38l-8.987,27.873a.562.562,0,0,0,.539.767l18.974-2.281a.528.528,0,0,0,.426-.366l9.088-26.424A.568.568,0,0,0-2628.375,1271.678Z" transform="translate(2657.222 -1270.08)" fill="url(#linear-gradient-33)"/>
          <path id="Path_449" data-name="Path 449" d="M-2529.723,1262.283l.735-2.222a.3.3,0,0,0-.257-.414h-6.944a.28.28,0,0,0-.262.214l-.7,2.458a.3.3,0,0,0,.27.4l6.907-.236A.279.279,0,0,0-2529.723,1262.283Z" transform="translate(2553.354 -1259.647)" fill="url(#linear-gradient-34)"/>
          <path id="Path_450" data-name="Path 450" d="M-2593,1294.784c1.239-4.492-.8-7.418,1.281-10.909,2.944-4.938,9.269-2.848,11.235-6.832.531-1.074.784-2.676.069-5.173l4.374-.191a.568.568,0,0,1,.5.781l-9.088,26.425a.527.527,0,0,1-.425.365l-11.532,1.387A12.869,12.869,0,0,0-2593,1294.784Z" transform="translate(2604.885 -1270.081)" opacity="0.3" fill="url(#linear-gradient-35)" style="mix-blend-mode: multiply;isolation: isolate"/>
        </g>
        <path id="Path_451" data-name="Path 451" d="M-2674.5,1398.37a15.676,15.676,0,0,0,3.995-1.423c1.112-.783,2.291-2.04,3.93-1.971s3.289,1,2.531,1.215-2.171,1.893-3.252,2.554a9.409,9.409,0,0,1-4.009.685,8.9,8.9,0,0,0-2.275,1.184Z" transform="translate(2739.577 -1341.523)" fill="url(#linear-gradient-36)"/>
        <path id="Path_452" data-name="Path 452" d="M-3009.426,1213.77c-1.289,1.373-11.891-6.452-14.144-5.512,1.284-4.558-6.044-7.9-5.765-14.711.232-5.679,5.507-7.9,4.435-11.57-.993-3.406-5.759-2.307-7.687-6.281-2.012-4.149,1.855-8.082,1.035-12.892-.337-1.976-1.49-4.227-4.464-6.475a9.232,9.232,0,0,0-.661,1.185c-1.206,2.643-.369,4.09-.394,9.036-.059,11.993-5.063,21.139-7.785,26.115-3.935,7.193-7.479,13.67-14.29,15.537a16.127,16.127,0,0,1-10.151-.772c-5.675.007-9.3,4.18-9.067,7.493a6.546,6.546,0,0,0,5.519,5.51c2.61.244,3.344-2.011,6.11-2.645,4.427-1.015,6.339,3.887,12.024,5.729,6.222,2.017,7.462-2.712,16.163-2.2,7.618.446,8.452,4.176,15.473,3.856,2.053-.094,9.649-.439,12.812-5.84A7.852,7.852,0,0,0-3009.426,1213.77Z" transform="translate(3089.832 -1134.565)" opacity="0.3" fill="url(#linear-gradient-37)" style="mix-blend-mode: multiply;isolation: isolate"/>
        <path id="Path_453" data-name="Path 453" d="M-2881.391,1152.18l2.661,5.289c-1.367.749-15.988,8.483-26.585.826a18.15,18.15,0,0,1-6.669-8.39c-2.068-5.43-.908-10.479-.155-13.759,1.863-8.117,7.133-16.633,14.611-20.054a42.743,42.743,0,0,1,9.437-2.59c2.7-.528,6.956-1.174,7.046-.716.044.223-.944.509-1.629.943-4.213,2.665,1.136,13.669-3.816,18.947-4.743,5.055-10.9,4.221-11.891,8.8a7.5,7.5,0,0,0,.919,4.9C-2895.091,1151.141-2888.7,1153.273-2881.391,1152.18Z" transform="translate(2946.546 -1096.668)" fill="url(#linear-gradient-38)"/>
        <path id="Path_454" data-name="Path 454" d="M-2663.275,1051.577s-1.717,5.581-3.855,6.45-5.519,1.866-5.943,2.253,11.361,4.665,17.969,2.7h0c-1.883-.921-2.387-1.216-2.387-1.216a11.261,11.261,0,0,1-2.321-1.714,9.856,9.856,0,0,1-2.242-3.53l.618-3.168Z" transform="translate(2738.352 -1043.72)" fill="url(#linear-gradient-39)"/>
        <path id="Path_455" data-name="Path 455" d="M-2612.075,1033.761s1,2.474,3.355,2.094c2.113-.34,2.006-6.283.57-7.3a2.547,2.547,0,0,0-2.171-.171A3.574,3.574,0,0,0-2612,1032c-.466-.277-.929-.234-1.09.015-.2.316.126.888.2,1.018A1.738,1.738,0,0,0-2612.075,1033.761Z" transform="translate(2686.381 -1023.468)" fill="url(#linear-gradient-40)"/>
      </g>
    </g>
    <g id="link" transform="translate(-3195.846 561.327)">
      <path id="Path_456" data-name="Path 456" d="M712.356,1087.935c-4.466-20.5,10.961-40.631,33.648-44.805,12.92-2.377,25.341.975,34.171,7.994v-.008c.055.044.107.09.162.134.153.123.3.25.453.375q.413.342.816.7.237.209.471.422.389.356.768.722c.144.14.29.278.432.42.284.284.561.573.835.866.1.106.2.209.3.316q.546.6,1.063,1.218c.092.11.178.224.268.334.253.312.5.626.745.946.119.157.233.317.349.476q.311.427.61.863c.115.169.23.339.342.51q.3.45.576.911c.1.16.2.32.294.482q.343.582.661,1.179c.044.083.093.163.136.247q.378.721.722,1.463c.068.146.13.294.195.441.159.356.314.713.461,1.076.074.185.146.371.217.557q.194.505.372,1.019c.067.192.133.384.2.578.118.362.229.729.335,1.1.049.171.1.341.149.514.146.54.283,1.085.4,1.638,2.866,13.158-2.575,26.5-13.168,35.317q-1.461,1.216-3.052,2.315-.8.55-1.624,1.068a45.012,45.012,0,0,1-13.042,5.509h0q-.988.246-1.977.444c-.222.045-.444.081-.666.122-.437.082-.875.164-1.311.233-.267.042-.533.075-.8.112-.391.055-.783.109-1.174.154-.286.032-.571.057-.857.084-.371.035-.742.069-1.112.094-.3.021-.59.036-.885.05-.359.018-.719.033-1.077.043-.3.008-.6.012-.9.014q-.528,0-1.054-.007c-.3-.005-.6-.012-.9-.024-.348-.013-.7-.032-1.042-.053-.3-.018-.6-.036-.893-.061-.109-.009-.221-.013-.33-.023l.005-.009C730,1114.512,715.8,1103.743,712.356,1087.935Z" transform="translate(-711.585 -1041.802)" fill="url(#linear-gradient-41)"/>
      <g id="Group_525" data-name="Group 525" transform="translate(3.135)">
        <path id="Path_457" data-name="Path 457" d="M804.692,1068.178c4.455,20.452-10.871,40.58-33.428,44.807-21.717,4.07-42.108-8.218-46.267-27.311s9.263-38.8,30.689-44.206C777.942,1035.857,800.237,1047.726,804.692,1068.178Z" transform="translate(-724.236 -1040.078)" fill="url(#linear-gradient-42)"/>
        <g id="Group_524" data-name="Group 524" transform="translate(0 22.794)" opacity="0.2" style="mix-blend-mode: multiply;isolation: isolate">
          <path id="Path_458" data-name="Path 458" d="M779.053,1171c-7.2-9.649-4.434-20.615-12.5-26.053-8.1-5.462-15.156,2.83-25.327-.737-3.89-1.364-8.559-4.578-13.174-12.3a34.106,34.106,0,0,0-3.079,22.8c4.159,19.093,24.55,31.381,46.267,27.311a45,45,0,0,0,14.039-5.133A25.206,25.206,0,0,1,779.053,1171Z" transform="translate(-724.215 -1131.911)" fill="url(#linear-gradient-43)"/>
        </g>
      </g>
      <g transform="matrix(1, 0, 0, 1, -153.35, 0)" filter="url(#Path_462)">
        <path id="Path_462-2" data-name="Path 462" d="M382.433-3211.18a10.537,10.537,0,0,1,5.775,1.729,10.447,10.447,0,0,1,1.8,1.479,3.169,3.169,0,0,1,.887,2.41,3.163,3.163,0,0,1-.887,1.987,3.085,3.085,0,0,1-4.3,0,4.518,4.518,0,0,0-6.487,0h0l-9.769,9.985a4.774,4.774,0,0,0,0,6.643,4.52,4.52,0,0,0,6.495,0h0l5.775-5.916a.754.754,0,0,1,.834-.173,12.613,12.613,0,0,0,4.9.971h.306a.773.773,0,0,1,.769.778.794.794,0,0,1-.226.56h0l-8.032,8.215a10.52,10.52,0,0,1-7.565,3.193,10.834,10.834,0,0,1-10.7-10.962,11.086,11.086,0,0,1,3.129-7.732h0l9.73-9.96A10.543,10.543,0,0,1,382.433-3211.18Zm7.509-11.612a11,11,0,0,1,15.526,0,10.94,10.94,0,0,1,0,15.494h0l-9.982,9.96a10.976,10.976,0,0,1-5.089,2.88h-.086l-.455.094-.251.046-.541.079H388.8c-.2,0-.384.04-.557.047h0l-.471.055h-.6a10.768,10.768,0,0,1-1.168-.11c-.321-.055-.635-.117-.949-.2h0l-.463-.125c-.165-.047-.337-.1-.5-.164s-.337-.117-.5-.187-.329-.133-.494-.211a10.873,10.873,0,0,1-3.137-2.191,3.125,3.125,0,0,1-.91-2.409,3.125,3.125,0,0,1,.91-2,3.22,3.22,0,0,1,4.407,0,4.713,4.713,0,0,0,6.65,0h0l2.572-2.552.063-.07,7.355-7.332a4.691,4.691,0,0,0,0-6.644,4.715,4.715,0,0,0-6.658,0h0l-5.9,5.884a.787.787,0,0,1-.855.173,13.19,13.19,0,0,0-5.011-.978h-.29a.784.784,0,0,1-.737-.478.781.781,0,0,1,.165-.861h0Z" transform="translate(-189.81 3239.85)" fill="#fff"/>
      </g>
    </g>
    <g id="Group_528" data-name="Group 528" transform="translate(-3105.732 628.044)">
      <path id="Path_463" data-name="Path 463" d="M-554.694,2692.077c4.287-18.468,24.67-28.93,44.806-23.559a38.442,38.442,0,0,1,24.8,19.748l0-.006c.028.057.053.115.08.172.077.16.15.321.225.482.136.293.269.587.4.884q.113.263.221.527.181.441.348.887c.064.17.129.339.19.51.122.342.236.685.346,1.03.04.125.084.248.122.374q.214.7.4,1.406c.032.125.059.251.089.377.086.352.168.706.242,1.061.036.174.068.349.1.523q.089.469.164.941.043.274.082.549c.045.322.083.644.118.967.018.169.038.338.054.507.036.4.063.811.084,1.218,0,.085.012.169.016.254.02.49.027.981.023,1.473,0,.145-.008.291-.012.436-.008.352-.02.7-.04,1.057-.011.18-.025.359-.038.539q-.037.487-.09.976c-.02.182-.04.365-.063.548-.044.341-.1.683-.151,1.025-.026.159-.049.318-.077.477-.089.5-.189,1-.3,1.493-2.752,11.851-12.356,20.638-24.416,23.737q-1.664.427-3.388.709-.863.141-1.739.244a40.676,40.676,0,0,1-12.779-.549h0q-.9-.182-1.786-.4c-.2-.049-.394-.106-.592-.158-.388-.1-.777-.2-1.16-.318-.234-.069-.464-.145-.7-.218-.341-.107-.682-.214-1.018-.329-.246-.084-.489-.174-.733-.263-.316-.115-.632-.231-.944-.353-.249-.1-.5-.2-.741-.3-.3-.125-.6-.251-.9-.382q-.372-.164-.738-.336-.432-.2-.858-.413c-.244-.121-.486-.243-.726-.368-.279-.145-.555-.3-.83-.447-.236-.13-.473-.26-.705-.4-.086-.05-.175-.1-.26-.146l.008-.005C-550.572,2720.6-558,2706.314-554.694,2692.077Z" transform="translate(555.477 -2667.111)" fill="url(#linear-gradient-44)"/>
      <g id="Group_527" data-name="Group 527" transform="translate(2.773 0.738)">
        <path id="Path_464" data-name="Path 464" d="M-468.757,2712.418c-4.277,18.42-24.577,28.923-44.628,23.646-19.3-5.08-31.2-23-27.2-40.2s22.576-28.1,42.159-24.215C-478.09,2675.682-464.481,2694-468.757,2712.418Z" transform="translate(541.36 -2670.867)" fill="url(#linear-gradient-45)"/>
        <g id="Group_526" data-name="Group 526" transform="translate(0 7.575)" opacity="0.3" style="mix-blend-mode: multiply;isolation: isolate">
          <path id="Path_465" data-name="Path 465" d="M-502.744,2761.081c-2.142-10.662,4.356-18.546-.122-26.1-4.5-7.593-13.468-3.554-20.391-10.4-2.648-2.619-5.216-7.049-6-15.139a30.811,30.811,0,0,0-11.336,17.424c-3.992,17.2,7.9,35.118,27.2,40.2a40.653,40.653,0,0,0,13.448,1.242A22.772,22.772,0,0,1-502.744,2761.081Z" transform="translate(541.36 -2709.436)" fill="url(#linear-gradient-46)"/>
        </g>
      </g>
      <g transform="matrix(1, 0, 0, 1, -243.47, -66.72)" filter="url(#Path_469)">
        <path id="Path_469-2" data-name="Path 469" d="M40.9,2.582C39.364.748,36.528,0,31.111,0H11.448C5.907,0,3.023.8,1.492,2.749,0,4.652,0,7.457,0,11.338v7.4c0,7.52,1.771,11.338,11.448,11.338H31.111c4.7,0,7.3-.66,8.984-2.278,1.727-1.659,2.464-4.369,2.464-9.06v-7.4C42.56,7.245,42.444,4.424,40.9,2.582ZM27.323,16.059l-8.929,4.686a1.373,1.373,0,0,1-2.009-1.222V10.181a1.373,1.373,0,0,1,2.006-1.222l8.929,4.656a1.381,1.381,0,0,1,0,2.445Z" transform="translate(262.19 84.96) rotate(2)" fill="#fff"/>
      </g>
    </g>
  </g>
</svg>
