<svg id="img_feature_3" xmlns="http://www.w3.org/2000/svg" xmlns:xlink="http://www.w3.org/1999/xlink" width="379.337" height="350.861" viewBox="0 0 379.337 350.861">
  <defs>
    <linearGradient id="linear-gradient" x1="0.892" y1="0.856" x2="0.374" y2="0.386" gradientUnits="objectBoundingBox">
      <stop offset="0.004" stop-color="#f36f56"/>
      <stop offset="1" stop-color="#ffc444"/>
    </linearGradient>
    <linearGradient id="linear-gradient-2" x1="0.892" y1="0.856" x2="0.374" y2="0.386" gradientUnits="objectBoundingBox">
      <stop offset="0" stop-color="#ffc444"/>
      <stop offset="0.996" stop-color="#f36f56"/>
    </linearGradient>
    <linearGradient id="linear-gradient-3" x1="0.733" y1="0.757" x2="0.248" y2="0.223" gradientUnits="objectBoundingBox">
      <stop offset="0" stop-color="#444b8c"/>
      <stop offset="0.996" stop-color="#26264f"/>
    </linearGradient>
    <linearGradient id="linear-gradient-4" x1="0.363" y1="0.092" x2="0.833" y2="1.497" gradientUnits="objectBoundingBox">
      <stop offset="0.004" stop-color="#26264f"/>
      <stop offset="1" stop-color="#444b8c"/>
    </linearGradient>
    <linearGradient id="linear-gradient-5" x1="0.363" y1="0.092" x2="0.833" y2="1.498" xlink:href="#linear-gradient-3"/>
    <linearGradient id="linear-gradient-7" x1="0.363" y1="0.092" x2="0.833" y2="1.498" xlink:href="#linear-gradient"/>
    <linearGradient id="linear-gradient-8" x1="0.363" y1="0.092" x2="0.833" y2="1.498" xlink:href="#linear-gradient-2"/>
    <linearGradient id="linear-gradient-9" x1="0.279" y1="0.048" x2="0.817" y2="1.591" xlink:href="#linear-gradient-2"/>
    <linearGradient id="linear-gradient-10" y1="0.5" x2="1" y2="0.5" gradientUnits="objectBoundingBox">
      <stop offset="0.494" stop-color="#ebeff2"/>
      <stop offset="1" stop-color="#fff"/>
    </linearGradient>
    <linearGradient id="linear-gradient-11" x1="-20.358" y1="-2.37" x2="-18.892" y2="-2.37" xlink:href="#linear-gradient-3"/>
    <linearGradient id="linear-gradient-12" x1="-7.81" y1="-3.352" x2="-7.026" y2="-3.352" xlink:href="#linear-gradient-3"/>
    <linearGradient id="linear-gradient-13" x1="-20.413" y1="-2.378" x2="-18.947" y2="-2.378" gradientUnits="objectBoundingBox">
      <stop offset="0" stop-color="#aa80f9"/>
      <stop offset="0.996" stop-color="#6165d7"/>
    </linearGradient>
    <linearGradient id="linear-gradient-14" x1="0.293" y1="0.73" x2="1.669" y2="-0.476" xlink:href="#linear-gradient-13"/>
    <linearGradient id="linear-gradient-15" x1="-4.651" y1="-0.424" x2="-3.822" y2="-1.141" gradientUnits="objectBoundingBox">
      <stop offset="0" stop-color="#e38ddd"/>
      <stop offset="0.004" stop-color="#ee724f"/>
      <stop offset="1" stop-color="#ff4848"/>
    </linearGradient>
    <linearGradient id="linear-gradient-16" x1="-6.214" y1="-0.596" x2="-5.168" y2="-1.371" xlink:href="#linear-gradient-2"/>
    <linearGradient id="linear-gradient-17" x1="-8.928" y1="-2.89" x2="-7.75" y2="-2.89" xlink:href="#linear-gradient-13"/>
    <linearGradient id="linear-gradient-18" x1="-37.476" y1="-3.512" x2="-35.369" y2="-4.405" xlink:href="#linear-gradient-13"/>
    <linearGradient id="linear-gradient-19" x1="-10.06" y1="-2.021" x2="-8.949" y2="-2.021" gradientUnits="objectBoundingBox">
      <stop offset="0.004" stop-color="#ebeff2"/>
      <stop offset="1" stop-color="#fff"/>
    </linearGradient>
    <linearGradient id="linear-gradient-20" x1="-11.814" y1="-3.13" x2="-10.532" y2="-3.13" xlink:href="#linear-gradient-19"/>
    <linearGradient id="linear-gradient-21" x1="-10.226" y1="-2.599" x2="-10.524" y2="-2.047" xlink:href="#linear-gradient-19"/>
    <linearGradient id="linear-gradient-22" x1="-12.635" y1="-1.861" x2="-11.6" y2="-3.222" xlink:href="#linear-gradient-3"/>
    <linearGradient id="linear-gradient-23" x1="-33.661" y1="-1.858" x2="-33.535" y2="-2.343" xlink:href="#linear-gradient-2"/>
    <linearGradient id="linear-gradient-24" x1="-13.556" y1="-4.265" x2="-12.438" y2="-4.265" xlink:href="#linear-gradient-13"/>
    <linearGradient id="linear-gradient-25" x1="-34.913" y1="-3.056" x2="-35.639" y2="-2.317" xlink:href="#linear-gradient-13"/>
    <linearGradient id="linear-gradient-26" x1="-17.699" y1="-7.147" x2="-17.983" y2="-5.923" xlink:href="#linear-gradient-3"/>
    <linearGradient id="linear-gradient-27" x1="-14.118" y1="-2.948" x2="-12.979" y2="-4.823" xlink:href="#linear-gradient-3"/>
    <linearGradient id="linear-gradient-28" x1="0.879" y1="0.044" x2="0.404" y2="0.831" gradientUnits="objectBoundingBox">
      <stop offset="0" stop-color="#ffc444"/>
      <stop offset="0.314" stop-color="#fba94a"/>
      <stop offset="0.996" stop-color="#f36f56"/>
    </linearGradient>
    <linearGradient id="linear-gradient-29" x1="-21.991" y1="0.5" x2="-20.991" y2="0.5" xlink:href="#linear-gradient-2"/>
    <linearGradient id="linear-gradient-31" x1="-8.279" y1="0.5" x2="-7.279" y2="0.5" xlink:href="#linear-gradient-13"/>
    <linearGradient id="linear-gradient-32" x1="-8.279" y1="0.5" x2="-7.279" y2="0.5" gradientUnits="objectBoundingBox">
      <stop offset="0" stop-color="#444b8c"/>
      <stop offset="0.996" stop-color="#3e4177"/>
    </linearGradient>
    <linearGradient id="linear-gradient-33" x1="99.008" y1="-13.314" x2="99.433" y2="-9.779" xlink:href="#linear-gradient-3"/>
    <linearGradient id="linear-gradient-34" x1="-9.642" y1="0.5" x2="-8.478" y2="0.5" xlink:href="#linear-gradient-32"/>
    <linearGradient id="linear-gradient-35" x1="154.54" y1="-10.296" x2="154.187" y2="-14.777" xlink:href="#linear-gradient-2"/>
    <linearGradient id="linear-gradient-36" x1="-7.088" y1="0.282" x2="-6.223" y2="0.867" xlink:href="#linear-gradient-32"/>
    <linearGradient id="linear-gradient-37" x1="-1.814" y1="-0.285" x2="-2.4" y2="0.448" xlink:href="#linear-gradient-3"/>
    <linearGradient id="linear-gradient-38" x1="0.342" y1="0.675" x2="1.041" y2="0.067" xlink:href="#linear-gradient-2"/>
    <linearGradient id="linear-gradient-39" x1="-28.26" y1="38.309" x2="-29.869" y2="40.413" gradientUnits="objectBoundingBox">
      <stop offset="0" stop-color="#311944"/>
      <stop offset="1" stop-color="#a03976"/>
    </linearGradient>
    <linearGradient id="linear-gradient-40" x1="0.576" y1="-0.396" x2="0.513" y2="0.617" xlink:href="#linear-gradient-39"/>
    <linearGradient id="linear-gradient-41" x1="0.5" y1="-0.416" x2="0.5" y2="-0.162" xlink:href="#linear-gradient-39"/>
    <linearGradient id="linear-gradient-42" x1="3.459" y1="-13.782" x2="3.242" y2="-14.071" xlink:href="#linear-gradient-13"/>
    <linearGradient id="linear-gradient-43" x1="3.047" y1="-13.197" x2="3.568" y2="-14.179" xlink:href="#linear-gradient-13"/>
    <linearGradient id="linear-gradient-44" x1="3.637" y1="-13.852" x2="5.14" y2="-13.852" xlink:href="#linear-gradient-13"/>
    <linearGradient id="linear-gradient-45" x1="0.378" y1="0.658" x2="1.102" y2="-0.034" xlink:href="#linear-gradient-2"/>
    <linearGradient id="linear-gradient-46" x1="0.655" y1="0.285" x2="-0.289" y2="1.234" xlink:href="#linear-gradient-2"/>
    <linearGradient id="linear-gradient-47" x1="1.444" y1="1.257" x2="-0.305" y2="-0.355" xlink:href="#linear-gradient-39"/>
    <linearGradient id="linear-gradient-48" x1="0.524" y1="0.875" x2="0.466" y2="-0.095" xlink:href="#linear-gradient-2"/>
    <linearGradient id="linear-gradient-49" x1="0" y1="0.5" x2="1" y2="0.5" xlink:href="#linear-gradient-13"/>
    <linearGradient id="linear-gradient-50" x1="0" y1="0.5" x2="1" y2="0.5" xlink:href="#linear-gradient-32"/>
  </defs>
  <g id="Background" transform="translate(119.306 66.873)">
    <g id="Group_531" data-name="Group 531" transform="translate(0 0)">
      <g id="Group_529" data-name="Group 529">
        <path id="Path_475" data-name="Path 475" d="M1406.841,1105.359c-30.682,0-56.428,25.014-56.428,55.87s25.746,54.141,56.428,52.081c29.554-1.985,52.726-26.914,52.726-55.746S1436.395,1105.359,1406.841,1105.359Zm0,6.609A16.07,16.07,0,0,1,1423.1,1128a16.633,16.633,0,0,1-16.256,16.491,16.06,16.06,0,0,1-16.591-16.023A16.619,16.619,0,0,1,1406.841,1111.968Zm3.871,47.236a4.023,4.023,0,0,1-3.871,3.972,3.709,3.709,0,0,1-3.89-3.712,4.022,4.022,0,0,1,3.89-3.973A3.709,3.709,0,0,1,1410.712,1159.2Zm-35.914,17.79c-9.489.415-17.263-6.749-17.263-16s7.774-16.94,17.263-17.163a16.176,16.176,0,0,1,16.907,16.016C1391.7,1168.907,1384.178,1176.584,1374.8,1176.994Zm32.043,29.707a15.341,15.341,0,0,1-16.591-15.381,17.422,17.422,0,0,1,16.591-17.138,15.345,15.345,0,0,1,16.256,15.4A17.442,17.442,0,0,1,1406.841,1206.7Zm30.815-32.453a15.241,15.241,0,0,1-15.958-15.412,16.523,16.523,0,0,1,15.958-16.484,15.256,15.256,0,0,1,15.642,15.422A16.548,16.548,0,0,1,1437.656,1174.248Z" transform="translate(-1350.413 -1105.359)" fill="url(#linear-gradient)"/>
        <path id="Path_476" data-name="Path 476" d="M1411.6,1105.359c-30.682,0-56.427,25.014-56.427,55.87s25.746,54.141,56.427,52.081c29.554-1.985,52.726-26.914,52.726-55.746S1441.152,1105.359,1411.6,1105.359Zm0,6.609A16.07,16.07,0,0,1,1427.854,1128a16.633,16.633,0,0,1-16.256,16.491,16.06,16.06,0,0,1-16.591-16.023A16.619,16.619,0,0,1,1411.6,1111.968Zm3.871,47.236a4.023,4.023,0,0,1-3.871,3.972,3.709,3.709,0,0,1-3.889-3.712,4.022,4.022,0,0,1,3.889-3.973A3.709,3.709,0,0,1,1415.469,1159.2Zm-35.914,17.79c-9.49.415-17.263-6.749-17.263-16s7.773-16.94,17.263-17.163a16.176,16.176,0,0,1,16.906,16.016C1396.461,1168.907,1388.935,1176.584,1379.555,1176.994ZM1411.6,1206.7a15.341,15.341,0,0,1-16.591-15.381,17.422,17.422,0,0,1,16.591-17.138,15.345,15.345,0,0,1,16.256,15.4A17.442,17.442,0,0,1,1411.6,1206.7Zm30.815-32.453a15.241,15.241,0,0,1-15.958-15.412,16.524,16.524,0,0,1,15.958-16.484,15.256,15.256,0,0,1,15.641,15.422A16.548,16.548,0,0,1,1442.413,1174.248Z" transform="translate(-1354.497 -1105.359)" fill="url(#linear-gradient-2)"/>
        <path id="Path_477" data-name="Path 477" d="M1571.448,1275.764c0,18.693-15.123,34.68-34.184,35.729-19.524,1.076-35.7-13.86-35.7-33.383s16.179-35.545,35.7-35.781A33.413,33.413,0,0,1,1571.448,1275.764Z" transform="translate(-1480.163 -1222.936)" fill="url(#linear-gradient-3)"/>
        <path id="Path_478" data-name="Path 478" d="M1601.508,1309.658c0,15.741-12.759,29.16-28.785,29.987a28.012,28.012,0,0,1-29.855-28.018c0-16.325,13.5-29.769,29.855-30.023A28.035,28.035,0,0,1,1601.508,1309.658Z" transform="translate(-1515.621 -1256.649)" fill="url(#linear-gradient-4)"/>
      </g>
      <g id="Group_530" data-name="Group 530" transform="translate(4.829)">
        <path id="Path_479" data-name="Path 479" d="M1607.143,1275.764c0,18.693-15.123,34.68-34.184,35.729-19.524,1.076-35.7-13.86-35.7-33.383s16.179-35.545,35.7-35.781A33.413,33.413,0,0,1,1607.143,1275.764Z" transform="translate(-1515.634 -1222.936)" fill="url(#linear-gradient-5)"/>
        <path id="Path_480" data-name="Path 480" d="M1637.2,1309.658c0,15.741-12.759,29.16-28.785,29.987a28.012,28.012,0,0,1-29.855-28.018c0-16.325,13.5-29.769,29.855-30.023A28.035,28.035,0,0,1,1637.2,1309.658Z" transform="translate(-1551.092 -1256.649)" fill="url(#linear-gradient-4)"/>
        <path id="Path_481" data-name="Path 481" d="M1440.95,1105.359c-30.682,0-56.428,25.014-56.428,55.87s25.746,54.141,56.428,52.081c29.554-1.985,52.726-26.914,52.726-55.746S1470.5,1105.359,1440.95,1105.359Zm0,6.609A16.07,16.07,0,0,1,1457.206,1128a16.634,16.634,0,0,1-16.256,16.491,16.06,16.06,0,0,1-16.591-16.023A16.619,16.619,0,0,1,1440.95,1111.968Zm3.871,47.236a4.023,4.023,0,0,1-3.871,3.972,3.709,3.709,0,0,1-3.89-3.712,4.022,4.022,0,0,1,3.89-3.973A3.709,3.709,0,0,1,1444.821,1159.2Zm-35.914,17.79c-9.489.415-17.263-6.749-17.263-16s7.774-16.94,17.263-17.163a16.176,16.176,0,0,1,16.907,16.016C1425.813,1168.907,1418.287,1176.584,1408.906,1176.994Zm32.043,29.707a15.341,15.341,0,0,1-16.591-15.381,17.422,17.422,0,0,1,16.591-17.138,15.345,15.345,0,0,1,16.256,15.4A17.443,17.443,0,0,1,1440.95,1206.7Zm30.815-32.453a15.241,15.241,0,0,1-15.958-15.412,16.524,16.524,0,0,1,15.958-16.484,15.256,15.256,0,0,1,15.641,15.422A16.548,16.548,0,0,1,1471.765,1174.248Z" transform="translate(-1384.522 -1105.359)" fill="url(#linear-gradient-7)"/>
        <path id="Path_482" data-name="Path 482" d="M1447.293,1105.359c-30.682,0-56.428,25.014-56.428,55.87s25.746,54.141,56.428,52.081c29.554-1.985,52.726-26.914,52.726-55.746S1476.847,1105.359,1447.293,1105.359Zm0,6.609A16.07,16.07,0,0,1,1463.549,1128a16.633,16.633,0,0,1-16.256,16.491,16.06,16.06,0,0,1-16.591-16.023A16.619,16.619,0,0,1,1447.293,1111.968Zm3.871,47.236a4.023,4.023,0,0,1-3.871,3.972,3.709,3.709,0,0,1-3.89-3.712,4.022,4.022,0,0,1,3.89-3.973A3.709,3.709,0,0,1,1451.164,1159.2Zm-35.914,17.79c-9.489.415-17.263-6.749-17.263-16s7.774-16.94,17.263-17.163a16.176,16.176,0,0,1,16.907,16.016C1432.156,1168.907,1424.63,1176.584,1415.25,1176.994Zm32.043,29.707a15.341,15.341,0,0,1-16.591-15.381,17.422,17.422,0,0,1,16.591-17.138,15.345,15.345,0,0,1,16.256,15.4A17.442,17.442,0,0,1,1447.293,1206.7Zm30.815-32.453a15.241,15.241,0,0,1-15.958-15.412,16.523,16.523,0,0,1,15.958-16.484,15.256,15.256,0,0,1,15.641,15.422A16.548,16.548,0,0,1,1478.108,1174.248Z" transform="translate(-1389.967 -1105.359)" fill="url(#linear-gradient-8)"/>
        <path id="Path_483" data-name="Path 483" d="M1463.54,1247.452c0,.116.009.232.009.349a17.442,17.442,0,0,1-16.256,17.12,15.341,15.341,0,0,1-16.591-15.381,17.336,17.336,0,0,1,9.687-15.342,20.37,20.37,0,0,1-2.425-4.725c-3.241-9.124,2.941-12.815.6-21.63-3.166-11.921-16.251-11.815-21.213-23.068a21.378,21.378,0,0,1-1.429-11.594,55.9,55.9,0,0,0-25.057,46.268c0,30.856,25.746,54.141,56.428,52.081a56.761,56.761,0,0,0,38.767-19.21,35.6,35.6,0,0,0-8.933-3.381C1472.084,1247.78,1467.953,1247.992,1463.54,1247.452Zm-48.29-12.238c-9.489.415-17.263-6.749-17.263-16s7.774-16.941,17.263-17.163a16.176,16.176,0,0,1,16.907,16.016C1432.156,1227.127,1424.63,1234.8,1415.25,1235.214Z" transform="translate(-1389.967 -1163.579)" opacity="0.3" fill="url(#linear-gradient-9)" style="mix-blend-mode: multiply;isolation: isolate"/>
      </g>
    </g>
  </g>
  <g id="Illustration">
    <g id="Group_535" data-name="Group 535" transform="translate(20.796 137.515)">
      <g id="Group_534" data-name="Group 534">
        <g id="Group_533" data-name="Group 533">
          <path id="Path_484" data-name="Path 484" d="M1034.649,2865.739l-354.993-3.12v9.232a4.891,4.891,0,0,0,3.645,5.016l100.381,18.179a13.685,13.685,0,0,0,3.6.171l243.507-20.728c2.174-.185,3.858-2.322,3.858-4.9Z" transform="translate(-676.108 -2681.92)" fill="#bfc8d6"/>
          <g id="Group_532" data-name="Group 532">
            <path id="Path_485" data-name="Path 485" d="M884.312,1755.126l-222.5,16.889c-3.982.3-7.219-2.909-7.219-7.173V1593.995a7.486,7.486,0,0,1,7.219-7.721h222.5c3.28,0,5.932,3.125,5.932,6.98V1747.7C890.244,1751.551,887.592,1754.877,884.312,1755.126Z" transform="translate(-654.597 -1586.273)" fill="#bfc8d6"/>
            <path id="Path_486" data-name="Path 486" d="M909.371,1755.126l-222.5,16.889c-3.982.3-7.219-2.909-7.219-7.173V1593.995a7.486,7.486,0,0,1,7.219-7.721h222.5c3.28,0,5.932,3.125,5.932,6.98V1747.7C915.3,1751.551,912.651,1754.877,909.371,1755.126Z" transform="translate(-676.108 -1586.273)" fill="#fff"/>
            <path id="Path_487" data-name="Path 487" d="M961.124,1804.384l-207.232,14.67a5.609,5.609,0,0,1-5.873-5.888V1663.589a6.135,6.135,0,0,1,5.873-6.329l207.232-.921c2.706-.012,4.895,2.549,4.895,5.72V1798.3C966.019,1801.467,963.83,1804.192,961.124,1804.384Z" transform="translate(-734.793 -1646.419)" fill="#d8dee8"/>
            <path id="Path_488" data-name="Path 488" d="M1540.866,1601.864a2.58,2.58,0,1,1-2.559-2.873A2.741,2.741,0,0,1,1540.866,1601.864Z" transform="translate(-1410.994 -1597.191)" fill="#fff"/>
            <path id="Path_489" data-name="Path 489" d="M855.764,1708.269c-17.153-9.913-30.639,2.648-43.655-9.745-7.891-7.514-4.017-13.116-13.727-24.345-10.754-12.436-17.756-8.256-28.564-19.448-13.666-14.152-6.831-25.163-18.6-35.324-14.28-12.326-29.681-.917-43.275-12.739-5.863-5.1-9.08-12.511-10.76-20.395h-13.3a4.387,4.387,0,0,0-4.224,4.532v177.1a4.008,4.008,0,0,0,4.224,4.21l226.76-17.289a3.625,3.625,0,0,0,2.733-1.794c-16.6-.65-26.8-6.627-33.316-12.806C867.3,1728.136,869.516,1716.216,855.764,1708.269Z" transform="translate(-676.108 -1586.273)" fill="#fff" opacity="0.48" style="mix-blend-mode: soft-light;isolation: isolate"/>
          </g>
          <path id="Path_490" data-name="Path 490" d="M918.239,2773.24l-238.583,17.777,104.027,18.84a13.685,13.685,0,0,0,3.6.171l247.365-21.056-112.615-15.611A17.894,17.894,0,0,0,918.239,2773.24Z" transform="translate(-676.108 -2605.153)" fill="url(#linear-gradient-10)"/>
          <path id="Path_491" data-name="Path 491" d="M925.554,2811.189l198.627-15.021,61.474,8.453-196.916,16.057Z" transform="translate(-887.193 -2624.877)" fill="#d8dee8"/>
        </g>
      </g>
    </g>
    <g id="Group_542" data-name="Group 542" transform="translate(75.397)">
      <g id="Group_541" data-name="Group 541" transform="translate(138.09)">
        <g id="Group_540" data-name="Group 540">
          <g id="Group_536" data-name="Group 536" transform="translate(0 75.041)">
            <path id="Path_492" data-name="Path 492" d="M2580.06,1371.9s19.626,17.709,8.212,50.895a4.226,4.226,0,0,1-7.214,1.354l-13.5-15.856a11.84,11.84,0,0,1-2.728-9.191l2.193-17Z" transform="translate(-2486.997 -1343.301)" fill="url(#linear-gradient-11)"/>
            <path id="Path_493" data-name="Path 493" d="M2066.291,1171.9s-24.485-9.962-49.4,14.757a4.227,4.227,0,0,0,1.92,7.084l20.151,5.253a11.841,11.841,0,0,0,9.462-1.544l14.351-9.373Z" transform="translate(-2015.649 -1169.915)" fill="url(#linear-gradient-12)"/>
          </g>
          <g id="Group_537" data-name="Group 537" transform="translate(1.486 72.673)">
            <path id="Path_494" data-name="Path 494" d="M2590.553,1355.17s19.626,17.709,8.212,50.895a4.227,4.227,0,0,1-7.214,1.354l-13.5-15.856a11.842,11.842,0,0,1-2.728-9.191l2.193-17Z" transform="translate(-2497.49 -1326.575)" fill="url(#linear-gradient-13)"/>
            <path id="Path_495" data-name="Path 495" d="M2076.784,1155.172s-24.485-9.963-49.4,14.758a4.227,4.227,0,0,0,1.921,7.084l20.151,5.254a11.841,11.841,0,0,0,9.462-1.544l14.351-9.373Z" transform="translate(-2026.142 -1153.188)" fill="url(#linear-gradient-14)"/>
          </g>
          <path id="Path_496" data-name="Path 496" d="M2312.228,663.1c21.788-27.45,63.373-22.983,63.4-22.936.054,0,22.174,35.5,6.944,67.063-13.814,28.627-48.945,52.186-55.713,56.538-.728.468-1.92,1.131-2.458.453-10.459-13.187-23.375-20.828-38.216-23.959-.822-.173-.718-1.516-.617-2.349C2286.524,730.033,2292.431,688.044,2312.228,663.1Z" transform="translate(-2247.296 -639.87)" fill="url(#linear-gradient-15)"/>
          <g id="Group_538" data-name="Group 538" transform="translate(59.441 9.33)" opacity="0.3" style="mix-blend-mode: multiply;isolation: isolate">
            <path id="Path_497" data-name="Path 497" d="M2460.906,755.365c12.2-15.247,25.688-11.031,37.619-24.459,4.356-4.9,8.868-12.568,10.5-25.133,5.539,12.565,12.831,36.236,2.315,58.029-13.814,28.627-48.945,52.186-55.713,56.538-.728.468-1.92,1.131-2.458.453a67.619,67.619,0,0,0-17.665-15.871,44.826,44.826,0,0,0,10.525-11.039C2455.613,779.464,2449.786,769.258,2460.906,755.365Z" transform="translate(-2435.501 -705.773)" fill="url(#linear-gradient-16)"/>
          </g>
          <path id="Path_498" data-name="Path 498" d="M2622.006,662.371c-10.265-6.439-22.636-11.931-33.271-12.913,18.724-10.5,40.512-9.794,45.93-9.4a2.42,2.42,0,0,1,1.924,1.207c2.708,4.708,12.822,24.02,11.522,45.444C2643.439,678.5,2632.271,668.81,2622.006,662.371Z" transform="translate(-2507.6 -639.873)" fill="url(#linear-gradient-17)"/>
          <path id="Path_499" data-name="Path 499" d="M2909.7,705.78l.077.177.133.3.132.306.126.294.139.329.12.285.147.353.115.277.153.376.109.269q.08.2.159.4l.1.26q.082.208.165.42c.033.085.066.17.1.255l.168.437.094.25c.057.152.115.305.172.459l.09.242q.088.238.175.478.043.118.085.236.089.247.178.5l.08.228q.09.257.18.517l.077.224q.09.266.181.534l.073.219q.091.274.182.55l.07.215q.091.282.181.568c.022.069.044.139.066.208q.091.291.182.586l.062.2q.091.3.181.6l.058.2q.091.308.18.62c.018.063.036.125.053.188q.091.318.179.639c.017.06.034.121.05.182q.089.326.177.654l.047.178q.088.333.174.668c.015.058.03.117.044.175q.086.34.171.683l.041.167q.084.348.167.7c.013.054.025.108.038.162q.083.356.163.714l.034.154q.08.364.159.731c.01.049.021.1.031.148q.078.372.154.746c.009.046.018.093.027.139q.075.38.148.762l.025.133q.073.387.142.778l.022.124q.069.395.135.793c.007.04.013.08.019.119q.066.4.128.807c.006.036.011.072.016.108q.063.411.121.825c0,.032.009.065.013.1q.059.42.113.842c0,.029.007.059.011.088q.054.429.1.86,0,.037.008.073.05.439.1.88c0,.02,0,.039.006.059q.045.449.086.9c0,.014,0,.029,0,.043q.04.46.075.923l0,.022a65.746,65.746,0,0,1,.075,8.86c-2.986-5.245-8.626-11.094-14.988-16.314C2905.522,722.132,2908.455,715.391,2909.7,705.78Z" transform="translate(-2776.74 -696.449)" opacity="0.3" fill="url(#linear-gradient-18)" style="mix-blend-mode: multiply;isolation: isolate"/>
          <ellipse id="Ellipse_3" data-name="Ellipse 3" cx="25.447" cy="28.257" rx="25.447" ry="28.257" transform="matrix(0.531, -0.847, 0.847, 0.531, 56.764, 61.211)" fill="url(#linear-gradient-19)"/>
          <path id="Path_500" data-name="Path 500" d="M2571.207,943.226c9.959-12.443,20.77-11.925,30.894-18.61,6.765,8.7,8.1,20.326,2.421,29.372-7.468,11.906-24.24,14.834-37.459,6.542a31.669,31.669,0,0,1-3.069-2.191A35.394,35.394,0,0,1,2571.207,943.226Z" transform="translate(-2486.361 -884.303)" fill="url(#linear-gradient-20)" style="mix-blend-mode: multiply;isolation: isolate"/>
          <ellipse id="Ellipse_4" data-name="Ellipse 4" cx="23.326" cy="25.901" rx="23.326" ry="25.901" transform="translate(59.888 60.665) rotate(-57.9)" fill="url(#linear-gradient-21)"/>
          <ellipse id="Ellipse_5" data-name="Ellipse 5" cx="20.319" cy="22.562" rx="20.319" ry="22.562" transform="translate(64.313 59.892) rotate(-57.9)" fill="url(#linear-gradient-22)"/>
          <ellipse id="Ellipse_6" data-name="Ellipse 6" cx="6.943" cy="23.5" rx="6.943" ry="23.5" transform="matrix(0.531, -0.847, 0.847, 0.531, 34.301, 105.795)" fill="url(#linear-gradient-23)"/>
          <path id="Path_501" data-name="Path 501" d="M2286.826,1382.668l8.544,5.36a13.182,13.182,0,0,1,5.975,13.459l-.886,5.015a2.641,2.641,0,0,1-4,1.778l-28.334-17.774a2.642,2.642,0,0,1-.143-4.38l4.13-2.98A13.18,13.18,0,0,1,2286.826,1382.668Z" transform="translate(-2231.315 -1275.777)" fill="url(#linear-gradient-24)"/>
          <ellipse id="Ellipse_7" data-name="Ellipse 7" cx="6.552" cy="19.394" rx="6.552" ry="19.394" transform="matrix(0.531, -0.847, 0.847, 0.531, 31.77, 117.721)" fill="url(#linear-gradient-25)"/>
          <path id="Path_502" data-name="Path 502" d="M2290.8,1443.189c-1.461,2.329,2.944,7.725,9.84,12.051s13.671,5.944,15.133,3.614-2.944-7.725-9.84-12.051S2292.259,1440.859,2290.8,1443.189Z" transform="translate(-2251.603 -1328.545)" fill="url(#linear-gradient-26)"/>
          <g id="Group_539" data-name="Group 539" transform="translate(79.246 42.896)" opacity="0.3" style="mix-blend-mode: color-burn;isolation: isolate">
            <path id="Path_503" data-name="Path 503" d="M2580.992,958.886c8.47-10.582,17.557-11.79,26.313-16.027,5.614,6.979,6.777,16.432,2.178,23.763-5.963,9.506-19.354,11.845-29.91,5.223a25,25,0,0,1-4.18-3.287A35.12,35.12,0,0,1,2580.992,958.886Z" transform="translate(-2575.392 -942.859)" fill="url(#linear-gradient-27)"/>
          </g>
        </g>
      </g>
      <path id="Path_504" data-name="Path 504" d="M1046.207,1624.647c-6.8-8.938-7.32-23.421-3.808-33.736,10.361-30.432,52.782-15.634,82.349-52.713,17.238-21.619,12.959-39.367,31.892-49.023,15.471-7.89,22.468,1.849,40.936-8.434,14.458-8.05,23.228-21.289,32.844-17.4a12.7,12.7,0,0,1,5.236,4.217c8.441,11.029-.348,32.693-1.9,36.372-10.787,25.5-28.55,24.9-29.512,39.534-.949,14.431,19,11.144,18.687,33.924-.31,22.456-22.884,14.747-24.246,32.254-1.5,19.337-13.148,18.988-54.418,15.528C1089.324,1620.567,1060.475,1643.407,1046.207,1624.647Z" transform="translate(-1040.264 -1346.16)" fill="url(#linear-gradient-28)"/>
    </g>
    <g id="Group_545" data-name="Group 545" transform="translate(0 63.541)">
      <path id="Path_505" data-name="Path 505" d="M1132.343,1210.532c1.852-.14,1.771,4.83,7,9.057,4.673,3.78,8.121,2.544,10.087,5.867,1.937,3.274,1.022,8.591-1.853,10.91-4.2,3.392-13.528,0-17.5-6.175C1125,1222.294,1129.562,1210.741,1132.343,1210.532Z" transform="translate(-1040.002 -1192.125)" fill="url(#linear-gradient-29)"/>
      <path id="Path_506" data-name="Path 506" d="M1132.343,1210.532c1.852-.14,1.771,4.83,7,9.057,4.673,3.78,8.121,2.544,10.087,5.867,1.937,3.274,1.022,8.591-1.853,10.91-4.2,3.392-13.528,0-17.5-6.175C1125,1222.294,1129.562,1210.741,1132.343,1210.532Z" transform="translate(-1040.002 -1192.125)" fill="url(#linear-gradient-29)"/>
      <path id="Path_507" data-name="Path 507" d="M1119.574,1511.71c15.125,3.672,25.087,9.567,30.906,13.736,3.153,2.26,4.61,3.669,5.4,5.724,4.48,11.707-18.539,29.408-20.992,31.261l-3.214-7.5c2.378-13.056,6.339-17.152,9.652-18.37.927-.341,2.483-.706,2.453-1.145-.071-1.037-8.815.441-17.17-2.616-8.332-3.049-16.7-10.762-15.208-15.862C1111.671,1516.012,1112.813,1513.321,1119.574,1511.71Z" transform="translate(-1025.78 -1450.667)" fill="url(#linear-gradient-31)"/>
      <path id="Path_508" data-name="Path 508" d="M1119.574,1511.71c15.125,3.672,25.087,9.567,30.906,13.736,3.153,2.26,4.61,3.669,5.4,5.724,4.48,11.707-18.539,29.408-20.992,31.261l-3.214-7.5c2.378-13.056,6.339-17.152,9.652-18.37.927-.341,2.483-.706,2.453-1.145-.071-1.037-8.815.441-17.17-2.616-8.332-3.049-16.7-10.762-15.208-15.862C1111.671,1516.012,1112.813,1513.321,1119.574,1511.71Z" transform="translate(-1025.78 -1450.667)" fill="url(#linear-gradient-32)"/>
      <path id="Path_509" data-name="Path 509" d="M1265.233,2116.114s-1.408.5-1.413,1.615,1.426,6.018,2.981,7.761,1.694-.858,1.6-2.532a30.257,30.257,0,0,0-.888-6.149C1267.126,2116.084,1265.233,2116.114,1265.233,2116.114Z" transform="translate(-1156.773 -1969.502)" fill="url(#linear-gradient-33)"/>
      <path id="Path_510" data-name="Path 510" d="M1138.931,1569.132c2.748-.054,9.187-.567,10.9,2.616,1.43,2.656-1.075,6.681-2.617,9.157-4.189,6.732-8.255,7.42-11.12,11.556a14.58,14.58,0,0,0-2.433,7.031l-1.823-4.251c2.378-13.055,6.339-17.151,9.652-18.37.927-.34,2.483-.706,2.453-1.145-.072-1.037-8.815.441-17.17-2.616-7.595-2.779-15.2-9.429-15.354-14.447C1123.448,1567.29,1132.5,1569.258,1138.931,1569.132Z" transform="translate(-1025.95 -1490.973)" opacity="0.3" fill="url(#linear-gradient-34)" style="mix-blend-mode: multiply;isolation: isolate"/>
      <path id="Path_511" data-name="Path 511" d="M1268.055,2082.7c.083,1.716.229,3.15.36,4.215a14.039,14.039,0,0,0,.923,4.139c.319.74,1.117,2.355,1.5,2.243s-.011-1.9-.312-6.878c-.044-.722-.177-3.021-.177-3.021h0Z" transform="translate(-1160.409 -1940.816)" fill="url(#linear-gradient-35)"/>
      <path id="Path_512" data-name="Path 512" d="M1007.413,1515.163a68,68,0,0,1,17.661,15.262c3.883,4.762,9.788,12.006,11.927,22.808,1.14,5.758.579,10.922-.589,21.016a211.657,211.657,0,0,1-4.125,23.762l-2.01.807a43.091,43.091,0,0,1-4.985-15.194c-1.377-10.922,2.709-14.393.748-22.138-1.7-6.71-6.621-10.824-16.466-19.052-8.089-6.761-15.547-10.772-18.316-19.2a6.417,6.417,0,0,1-.1-4.8C992.806,1514.968,999.125,1513.758,1007.413,1515.163Z" transform="translate(-922.341 -1453.138)" fill="url(#linear-gradient-36)"/>
      <path id="Path_513" data-name="Path 513" d="M585.34,1100.1c2.262-.487,5.982-.39,9.528-3.182,1.068-.841,4.85-3.819,4.391-8.081-.4-3.752-3.96-5.768-4.4-6.008-2.517-1.386-5.027-1.078-7.81-.7-3.609.493-4.808,1.479-7.315,2.155-6.2,1.672-8.3-1.818-14.549-1.524-7.984.376-8.674,6.273-15.391,6.42-7.541.165-8.986-7.215-16.431-8.465-10.334-1.736-25.97,9.389-25.655,22.213.182,7.407,5.7,15.9,12.742,18.444,4.106,1.485,8.537,1.014,9.8,3.684.9,1.9-1.124,3.364-.932,6.675.246,4.269,3.921,7.264,4.515,7.748,5.509,4.491,17.86,2.222,26.295-4.132C575.343,1123.889,573.041,1102.742,585.34,1100.1Z" transform="translate(-507.707 -1080.535)" fill="url(#linear-gradient-37)"/>
      <path id="Path_514" data-name="Path 514" d="M789.951,1196.842a161.908,161.908,0,0,1,17.6-1.2c13.874-.188,15.86,1.571,16.368,2.873.948,2.428-.675,3.644.246,7.878.551,2.531.03,3.684,1.1,6.4,1.038,2.65.224,4.075-.694,10.29-1.174,7.947-1.715,11.985.508,15.189,1.545,2.226,3.274,2.414,3.109,3.472-.351,2.253-8.14,1.01-18,5.335a73.66,73.66,0,0,0-7.686,4.088c-5.159,3.029-6.114,4.188-8.5,5.56-7.556,4.341-18.907,4.759-24.856-.49-2.218-1.957-3.834-4.834-3.107-5.887.99-1.434,5.42,1.823,9.484-.163,2.693-1.316,2.181-3.445,5.294-5.954,3.746-3.019,6.351-1.437,8.9-3.4,3.978-3.064,2.168-10.4,1.052-22.7A205.387,205.387,0,0,1,789.951,1196.842Z" transform="translate(-729.306 -1179.333)" fill="url(#linear-gradient-38)"/>
      <path id="Path_515" data-name="Path 515" d="M1041.8,1227.7l1.539-.262s2.589-6.412,5.112-4.6.671,2.146-.176,2.357-2.632,2.208-2.97,3.1-3.015,1.764-3.015,1.764Z" transform="translate(-966.188 -1202.416)" fill="url(#linear-gradient-39)"/>
      <path id="Path_516" data-name="Path 516" d="M1010.006,1162.229c-1.892,1.174-4.951,2.708-5.288,3.125s9.267,2.061,15.242-.955c0,0,.926-.514-2.676-1.235-.768-.154-.618-1.647-.515-3.191l-.721-1.338S1011.9,1161.055,1010.006,1162.229Z" transform="translate(-934.346 -1147.578)" fill="url(#linear-gradient-40)"/>
      <path id="Path_517" data-name="Path 517" d="M1080.959,1144.4a2.838,2.838,0,0,0,1.315,3.047c1.608.9,4.328-2.8,3.82-4.172a2.428,2.428,0,0,0-1.408-1.246,2.7,2.7,0,0,0-2.85,1.332c-.189-.415-.527-.632-.754-.564-.289.086-.331.611-.341.73A1.47,1.47,0,0,0,1080.959,1144.4Z" transform="translate(-999.61 -1133.276)" fill="url(#linear-gradient-41)"/>
      <g id="Group_544" data-name="Group 544" transform="translate(83.917 13.672)">
        <g id="Group_543" data-name="Group 543">
          <path id="Path_518" data-name="Path 518" d="M1108.91,1192.088l-7.864.4c-.3.015-.661-.358-.587-.612l3.674-11.888a.467.467,0,0,1,.483-.317l7.542.165c.246.015.38.5.313.738l-3.125,11.179A.488.488,0,0,1,1108.91,1192.088Z" transform="translate(-1100.449 -1179.304)" fill="url(#linear-gradient-42)"/>
          <path id="Path_519" data-name="Path 519" d="M1110.867,1189.6l-7.908.371c-.3.014-.512-.2-.438-.457l3.532-12.094a.467.467,0,0,1,.485-.317l7.553.447a.385.385,0,0,1,.346.492l-3.133,11.219A.488.488,0,0,1,1110.867,1189.6Z" transform="translate(-1102.215 -1177.105)" fill="url(#linear-gradient-43)"/>
        </g>
        <path id="Path_520" data-name="Path 520" d="M1106.64,1183.1c.234,1.1,1.224.863,2.03,2.194,1.024,1.69.043,3.182.982,3.8a1.992,1.992,0,0,0,1.642.074l-.224.8a.488.488,0,0,1-.438.339l-7.908.371c-.3.014-.512-.2-.438-.457l3.532-12.094a.467.467,0,0,1,.485-.317l1.135.067a4.371,4.371,0,0,1,.218,1.427C1107.622,1181.129,1106.366,1181.808,1106.64,1183.1Z" transform="translate(-1102.014 -1177.711)" fill="url(#linear-gradient-44)" style="mix-blend-mode: multiply;isolation: isolate"/>
      </g>
      <path id="Path_521" data-name="Path 521" d="M814.039,1287.644c-2.857,1.184-3.243,3.743-7.193,5.2-3.768,1.385-5.033-.35-8.792.8-5.646,1.727-7.8,7.174-8.659,6.66-.783-.471-.032-5.682,3.6-9.058,4.167-3.877,8.656-2.1,11.323-6.127,1.038-1.567,1.838-4.068.932-5.994-1.227-2.61-4.43-1.7-6.128-3.863-3.05-3.878,4.087-10.872,2.131-16.784-.781-2.359-3.266-5.317-11.282-7.3.109,5.926.45,10.879.792,14.64,1.116,12.3,2.926,19.638-1.052,22.7-2.55,1.965-5.155.383-8.9,3.4-3.113,2.509-2.6,4.638-5.294,5.954-4.064,1.986-8.494-1.27-9.484.163-.727,1.053.889,3.93,3.107,5.887,5.949,5.249,17.3,4.831,24.856.491,2.389-1.372,3.344-2.531,8.5-5.56a73.637,73.637,0,0,1,7.686-4.088c6.92-3.035,12.816-3.328,15.841-4.012C820.016,1286.748,816.358,1286.683,814.039,1287.644Z" transform="translate(-729.306 -1227.017)" opacity="0.3" fill="url(#linear-gradient-45)" style="mix-blend-mode: multiply;isolation: isolate"/>
      <path id="Path_522" data-name="Path 522" d="M1167.934,1228.67c-2.1,1.143.682,13.5,4.632,19.658,1.162,1.811,5.013,4.611,8.131,3.808,2.4-.617,3.7-5.82,3.191-9.16-.46-3.036-3.88-5.256-8.234-9.16C1171.376,1229.98,1169.167,1228,1167.934,1228.67Z" transform="translate(-1073.844 -1207.587)" fill="url(#linear-gradient-46)"/>
      <path id="Path_523" data-name="Path 523" d="M1167.17,1213.958l.481-1.5a.927.927,0,0,0-.433-1.1,1.753,1.753,0,0,0-1.9-.107c-1,.772.695,4.786,1.081,4.477A5.3,5.3,0,0,0,1167.17,1213.958Z" transform="translate(-1071.948 -1192.54)" fill="url(#linear-gradient-47)"/>
      <path id="Path_524" data-name="Path 524" d="M854,1201.812c-1.254-2.335-6.222-2.383-9.458-1.6-8.916,2.162-18.049,13.888-14.653,24.11.208.625,2.592,7.49,8.126,8.792,7.166,1.686,17.484-6.458,22.512-21.979l-1.465-3.463a112.175,112.175,0,0,1-8.525,7.992c-4.589,3.876-8.154,6.259-8.259,6.127a41.033,41.033,0,0,0,6.793-6.927,27.658,27.658,0,0,0,3.73-6.927C854.063,1204.708,854.692,1203.092,854,1201.812Z" transform="translate(-783.657 -1182.878)" fill="url(#linear-gradient-48)"/>
    </g>
    <g id="Group_546" data-name="Group 546" transform="translate(110.128 167.934)">
      <path id="Path_525" data-name="Path 525" d="M1366.12,1851.928c0,22.51-17.266,41.411-39.154,42.239-22.568.854-41.383-17.72-41.383-41.512s18.815-42.706,41.383-42.259C1348.854,1810.829,1366.12,1829.418,1366.12,1851.928Z" transform="translate(-1285.582 -1810.389)" opacity="0.7" fill="url(#linear-gradient-49)"/>
      <path id="Path_526" data-name="Path 526" d="M1505.969,1978.639l-26.706-16.078a4.057,4.057,0,0,0-4.146-.018,4.3,4.3,0,0,0-2.1,3.684v32.637a4.211,4.211,0,0,0,2.1,3.649,4.03,4.03,0,0,0,4.13-.092l26.713-16.56a4.269,4.269,0,0,0,1.979-3.628A4.173,4.173,0,0,0,1505.969,1978.639Z" transform="translate(-1446.483 -1940.52)" fill="#f4f7fa"/>
    </g>
    <g id="Group_550" data-name="Group 550" transform="translate(40.884 262.22)">
      <g id="Group_547" data-name="Group 547">
        <path id="Path_527" data-name="Path 527" d="M816.7,2530.9l-14.146.676a6.351,6.351,0,0,0-6.061,6.26v11.938c0,4.911,4.4,6.948,7.786,6.735l12.457-2.044a6.371,6.371,0,0,0,5.954-6.244l2.144-11.635C824.831,2533.346,820,2530.743,816.7,2530.9Z" transform="translate(-796.489 -2522.472)" fill="url(#linear-gradient-50)"/>
        <path id="Path_528" data-name="Path 528" d="M1203.957,2471.409l-157.7,7.516c-3.24.154-5.275,2.893-5.275,6.117v11.681c0,4.891,3.39,6.564,6.385,6.634.2.008.276.119.479.106l94.893-7.34c.055,0,.04-.014.1-.019l61.139-3.841a5.322,5.322,0,0,0,4.649-5.49l2.346-10.489C1210.964,2473.417,1206.548,2471.286,1203.957,2471.409Z" transform="translate(-1006.364 -2471.404)" fill="url(#linear-gradient-50)"/>
      </g>
      <g id="Group_549" data-name="Group 549" transform="translate(2.371 1.262)">
        <g id="Group_548" data-name="Group 548">
          <path id="Path_529" data-name="Path 529" d="M833.737,2539.909l-14.292.677a6.486,6.486,0,0,0-6.21,6.26v11.936a5.654,5.654,0,0,0,6.174,5.582l14.31-.894a6.476,6.476,0,0,0,6.07-6.243v-11.734A5.655,5.655,0,0,0,833.737,2539.909Z" transform="translate(-813.235 -2531.467)" fill="url(#linear-gradient-49)"/>
          <path id="Path_530" data-name="Path 530" d="M1222.7,2485.293v10.39a5.368,5.368,0,0,1-4.7,5.489l-158,9.949a5.237,5.237,0,0,1-5.626-5.471V2493.97a5.989,5.989,0,0,1,5.615-6.119l158.136-7.531C1220.716,2480.2,1222.7,2482.425,1222.7,2485.293Z" transform="translate(-1020.235 -2480.316)" fill="#f4f7fa"/>
          <path id="Path_531" data-name="Path 531" d="M1162.627,2504.208v10.966a5.731,5.731,0,0,1-5.137,5.81l-97.456,6.145a5.272,5.272,0,0,1-5.661-5.526v-11.8a6.05,6.05,0,0,1,5.673-6.182l97.575-4.652C1160.479,2498.835,1162.627,2501.18,1162.627,2504.208Z" transform="translate(-1020.235 -2496.325)" fill="url(#linear-gradient-49)"/>
        </g>
        <path id="Path_532" data-name="Path 532" d="M890.209,2590.1l-7.733-4.577a1.635,1.635,0,0,0-1.425,0c-.369.219-.833.625-.833,1.063v9.374c0,.438.464.836.833,1.045a1.389,1.389,0,0,0,1.307-.032l7.792-4.8a1.261,1.261,0,0,0,.6-1.047A1.167,1.167,0,0,0,890.209,2590.1Z" transform="translate(-870.735 -2570.488)" fill="#f4f7fa" style="mix-blend-mode: soft-light;isolation: isolate"/>
      </g>
    </g>
  </g>
</svg>
