<?xml version="1.0" encoding="UTF-8" standalone="no"?>
<svg
   width="343.163"
   height="337.992"
   viewBox="0 0 343.163 337.992"
   version="1.1"
   id="svg1062"
   sodipodi:docname="final-img.svg"
   inkscape:version="1.1 (c68e22c387, 2021-05-23)"
   xmlns:inkscape="http://www.inkscape.org/namespaces/inkscape"
   xmlns:sodipodi="http://sodipodi.sourceforge.net/DTD/sodipodi-0.dtd"
   xmlns:xlink="http://www.w3.org/1999/xlink"
   xmlns="http://www.w3.org/2000/svg"
   xmlns:svg="http://www.w3.org/2000/svg">
  <sodipodi:namedview
     id="namedview1064"
     pagecolor="#ffffff"
     bordercolor="#999999"
     borderopacity="1"
     inkscape:pageshadow="0"
     inkscape:pageopacity="0"
     inkscape:pagecheckerboard="0"
     showgrid="false"
     inkscape:zoom="2.3166228"
     inkscape:cx="171.58598"
     inkscape:cy="168.996"
     inkscape:window-width="1920"
     inkscape:window-height="1001"
     inkscape:window-x="-9"
     inkscape:window-y="-9"
     inkscape:window-maximized="1"
     inkscape:current-layer="img_feature_1" />
  <defs
     id="defs996">
    <linearGradient
       id="linear-gradient"
       y1="0.5"
       x2="1"
       y2="0.5"
       gradientUnits="objectBoundingBox">
      <stop
         offset="0"
         stop-color="#e38ddd"
         id="stop945" />
      <stop
         offset="0.004"
         stop-color="#ee724f"
         id="stop947" />
      <stop
         offset="1"
         stop-color="#ff4848"
         id="stop949" />
    </linearGradient>
    <linearGradient
       id="linear-gradient-9"
       x1="0.5"
       y1="0"
       x2="0.5"
       y2="1"
       xlink:href="#linear-gradient" />
    <linearGradient
       id="linear-gradient-10"
       y1="0.5"
       x2="1"
       y2="0.5"
       gradientUnits="objectBoundingBox"
       xlink:href="#linear-gradient-14">
      <stop
         offset="0"
         stop-color="#86e2bf"
         id="stop953" />
      <stop
         offset="1"
         stop-color="#25f2a4"
         id="stop955" />
    </linearGradient>
    <linearGradient
       id="linear-gradient-11"
       x1="0.101"
       y1="0.263"
       x2="0.824"
       y2="0.592"
       xlink:href="#linear-gradient" />
    <linearGradient
       id="linear-gradient-12"
       y1="0.5"
       x2="1"
       y2="0.5"
       gradientUnits="objectBoundingBox">
      <stop
         offset="0.004"
         stop-color="#e38ddd"
         id="stop959" />
      <stop
         offset="1"
         stop-color="#9571f6"
         id="stop961" />
    </linearGradient>
    <linearGradient
       id="linear-gradient-13"
       x1="0.613"
       y1="-0.082"
       x2="0.329"
       y2="1.077"
       gradientUnits="objectBoundingBox">
      <stop
         offset="0"
         stop-color="#ffc444"
         id="stop964" />
      <stop
         offset="0.996"
         stop-color="#f36f56"
         id="stop966" />
    </linearGradient>
    <linearGradient
       id="linear-gradient-14"
       x1="0.764"
       y1="0.988"
       x2="1.793"
       y2="3.537"
       gradientUnits="objectBoundingBox">
      <stop
         offset="0"
         stop-color="#444b8c"
         id="stop969" />
      <stop
         offset="0.996"
         stop-color="#26264f"
         id="stop971" />
    </linearGradient>
    <linearGradient
       id="linear-gradient-15"
       x1="34.012"
       y1="-3.707"
       x2="33.237"
       y2="-2.406"
       xlink:href="#linear-gradient-13" />
    <linearGradient
       id="linear-gradient-16"
       x1="-67.632"
       y1="0.204"
       x2="-70.034"
       y2="1.615"
       xlink:href="#linear-gradient-13" />
    <linearGradient
       id="linear-gradient-17"
       x1="20.443"
       y1="28.654"
       x2="18.353"
       y2="29.895"
       xlink:href="#linear-gradient-13" />
    <linearGradient
       id="linear-gradient-18"
       x1="119.838"
       y1="127.372"
       x2="107.378"
       y2="132.994"
       xlink:href="#linear-gradient-13" />
    <linearGradient
       id="linear-gradient-19"
       x1="-142.573"
       y1="-0.109"
       x2="-143.288"
       y2="2.337"
       xlink:href="#linear-gradient-13" />
    <linearGradient
       id="linear-gradient-20"
       x1="-51.134"
       y1="0.5"
       x2="-50.134"
       y2="0.5"
       gradientUnits="objectBoundingBox">
      <stop
         offset="0"
         stop-color="#311944"
         id="stop979" />
      <stop
         offset="1"
         stop-color="#893976"
         id="stop981" />
    </linearGradient>
    <linearGradient
       id="linear-gradient-21"
       x1="-71.98"
       y1="-0.249"
       x2="-72.63"
       y2="2.769"
       xlink:href="#linear-gradient-13" />
    <linearGradient
       id="linear-gradient-22"
       x1="-57.207"
       y1="0.5"
       x2="-56.207"
       y2="0.5"
       xlink:href="#linear-gradient-20" />
    <linearGradient
       id="linear-gradient-23"
       x1="-17.024"
       y1="0.333"
       x2="-15.782"
       y2="0.544"
       xlink:href="#linear-gradient-13" />
    <linearGradient
       id="linear-gradient-24"
       x1="-20.503"
       y1="0.328"
       x2="-19.006"
       y2="0.539"
       xlink:href="#linear-gradient-13" />
    <linearGradient
       id="linear-gradient-25"
       x1="-9.326"
       y1="0.108"
       x2="-10.189"
       y2="0.702"
       xlink:href="#linear-gradient-13" />
    <linearGradient
       id="linear-gradient-26"
       x1="0.527"
       y1="0.431"
       x2="1.015"
       y2="2.47"
       xlink:href="#linear-gradient-14" />
    <linearGradient
       id="linear-gradient-27"
       x1="-10.376"
       y1="-0.172"
       x2="-12.154"
       y2="1.046"
       xlink:href="#linear-gradient-14" />
    <linearGradient
       id="linear-gradient-28"
       x1="0.908"
       y1="-0.121"
       x2="0.332"
       y2="0.736"
       gradientUnits="objectBoundingBox">
      <stop
         offset="0"
         stop-color="#0ebc00"
         id="stop991" />
      <stop
         offset="1"
         stop-color="#25f2b3"
         id="stop993" />
    </linearGradient>
  </defs>
  <g
     id="img_feature_1"
     transform="translate(-394.581 -462.408)">
    <g
       id="Group_471"
       data-name="Group 471"
       transform="translate(394.581 462.408)"
       opacity="0.5">
      <g
         id="Group_462"
         data-name="Group 462"
         transform="translate(69.084 0)"
         style="fill:#1515df;fill-opacity:1">
        <path
           id="Path_337"
           data-name="Path 337"
           d="M1157.432,520.534l-160.07-14.251c-10.108-.9-18.079,5.1-17.989,13.386l.052,4.793c.09,8.286,8.327,15.437,18.425,15.973l159.887,8.491a11.061,11.061,0,0,0,11.914-11.408l-.03-3.848A13.468,13.468,0,0,0,1157.432,520.534Z"
           transform="translate(-979.373 -506.194)"
           fill="url(#linear-gradient)"
           style="fill:#1515df;fill-opacity:1" />
      </g>
      <g
         id="Group_463"
         data-name="Group 463"
         transform="translate(196.82 68.234)">
        <path
           id="Path_338"
           data-name="Path 338"
           d="M2194.474,1097.134c-.035-5.37-3.979-9.839-8.987-9.988l-112.545-3.349c-6.807-.2-12.352,4.809-12.3,11.2l.031,3.54c.055,6.384,5.736,11.55,12.538,11.536l112.406-.22c5-.01,8.908-4.371,8.873-9.739Z"
           transform="translate(-2060.645 -1083.792)"
           fill="url(#linear-gradient)"
           style="fill:#aeaeff;fill-opacity:1" />
      </g>
      <g
         id="Group_464"
         data-name="Group 464"
         transform="translate(165.27 155.921)">
        <path
           id="Path_339"
           data-name="Path 339"
           d="M1936.985,1835.278a8.974,8.974,0,0,0-9.725-9.192l-120.411,10.262c-7.317.624-13.337,6.5-13.276,13.109l.034,3.664c.061,6.609,6.142,11.262,13.454,10.407l120.356-14.062a11.26,11.26,0,0,0,9.587-11.125Z"
           transform="translate(-1793.574 -1826.052)"
           fill="url(#linear-gradient)"
           style="fill:#9292ff;fill-opacity:1" />
      </g>
      <g
         id="Group_465"
         data-name="Group 465"
         transform="translate(12.352 115.567)">
        <path
           id="Path_340"
           data-name="Path 340"
           d="M696.822,1484.458l-177.335,4.858c-11.3.309-20.452,7.665-20.349,16.417l.06,5.06c.1,8.748,9.376,15.246,20.664,14.533l177.278-11.2c7.5-.474,13.446-6.484,13.388-13.431l-.033-4.018C710.438,1489.725,704.333,1484.253,696.822,1484.458Z"
           transform="translate(-499.138 -1484.453)"
           fill="url(#linear-gradient)"
           style="fill:#babaff;fill-opacity:1" />
      </g>
      <g
         id="Group_466"
         data-name="Group 466"
         transform="translate(290.344 40.141)"
         style="fill:#0000e2;fill-opacity:1">
        <path
           id="Path_341"
           data-name="Path 341"
           d="M2865.951,853.529a6.426,6.426,0,0,1-6.7,6.7,7.569,7.569,0,0,1-6.93-7.536,6.418,6.418,0,0,1,6.83-6.69A7.586,7.586,0,0,1,2865.951,853.529Z"
           transform="translate(-2852.315 -845.983)"
           fill="url(#linear-gradient)"
           style="fill:#0000e2;fill-opacity:1" />
      </g>
      <g
         id="Group_467"
         data-name="Group 467"
         transform="translate(12.56 182.384)">
        <path
           id="Path_342"
           data-name="Path 342"
           d="M525.21,2058.388c.059,5.167-5.231,9.939-11.9,10.669-6.755.74-12.349-2.943-12.411-8.237s5.433-10.09,12.192-10.7C519.763,2049.515,525.151,2053.221,525.21,2058.388Z"
           transform="translate(-500.904 -2050.054)"
           fill="url(#linear-gradient)"
           style="fill:#a3a3f8;fill-opacity:1" />
      </g>
      <g
         id="Group_468"
         data-name="Group 468"
         transform="translate(274.726 9.799)"
         style="fill:#1a1abc;fill-opacity:1">
        <path
           id="Path_343"
           data-name="Path 343"
           d="M2728.577,606.22a9.584,9.584,0,0,1-8.467-9.342,7.43,7.43,0,0,1,8.342-7.686,9.607,9.607,0,0,1,8.283,9.327A7.435,7.435,0,0,1,2728.577,606.22Zm-.106-14.5a5.229,5.229,0,0,0-5.851,5.41,6.746,6.746,0,0,0,5.938,6.573,5.231,5.231,0,0,0,5.76-5.418A6.757,6.757,0,0,0,2728.471,591.716Z"
           transform="translate(-2720.11 -589.143)"
           fill="url(#linear-gradient)"
           style="fill:#1a1abc;fill-opacity:1" />
      </g>
      <g
         id="Group_469"
         data-name="Group 469"
         transform="translate(0 62.523)">
        <path
           id="Path_344"
           data-name="Path 344"
           d="M425.063,1055.943l-30.482-.035,15.326-20.466Zm-25.153-2.378,20.134.088-10.083-13.575Z"
           transform="translate(-394.581 -1035.442)"
           fill="url(#linear-gradient)"
           style="fill:#9a9aff;fill-opacity:1" />
      </g>
    </g>
    <path
       id="Path_345"
       data-name="Path 345"
       d="M2951.116,1539.651l19.316-1.885-8.457,17.508Z"
       transform="translate(-2254.519 -953.493)"
       opacity="0.6"
       fill="url(#linear-gradient-9)"
       style="fill:#a1a1ff;fill-opacity:1" />
    <g
       id="Group_475"
       data-name="Group 475"
       transform="translate(430.66 506.365)">
      <path
         id="Path_346"
         data-name="Path 346"
         d="M954.457,904.24c0-6.918-4.6-12.786-10.367-13.11L715.775,878.313c-.274-.015-.538-.024-.809-.025a14.887,14.887,0,0,0-12.325,6.206,14.633,14.633,0,0,0-2.651,8.626v11.264h0v176.78a14.935,14.935,0,0,0,.241,3.126c.054.249.07.5.136.738a13.369,13.369,0,0,0,10.7,9.8,15.563,15.563,0,0,0,4.727.171l179.006-21.13h0l49.288-5.852c5.771-.682,10.367-6.861,10.367-13.779V913.226h0Z"
         transform="translate(-699.99 -878.287)"
         fill="#b7c0ce" />
      <g
         id="Group_474"
         data-name="Group 474"
         transform="translate(5.677 0)">
        <path
           id="Path_347"
           data-name="Path 347"
           d="M992.353,891.13,764.021,878.313a14.845,14.845,0,0,0-15.974,14.806v188.045c0,8.673,7.2,14.852,15.974,13.815L992.353,1068c5.771-.682,10.4-6.837,10.4-13.755v-150C1002.755,897.322,998.124,891.454,992.353,891.13Z"
           transform="translate(-748.046 -878.287)"
           fill="#fff" />
        <path
           id="Path_348"
           data-name="Path 348"
           d="M802.429,1127.063a9.414,9.414,0,0,1-10.829-9.409V930.378A10.115,10.115,0,0,1,802.429,920.3l228.332,11.908c3.93.2,7.1,4.208,7.1,8.925v150.494c0,4.717-3.175,8.917-7.1,9.366Z"
           transform="translate(-786.454 -915.321)"
           fill="#f4f7fa" />
        <path
           id="Path_349"
           data-name="Path 349"
           d="M992.352,891.13,764.02,878.313a14.845,14.845,0,0,0-15.975,14.806v11.265l254.709,8.842V904.24C1002.754,897.322,998.123,891.454,992.352,891.13Z"
           transform="translate(-748.045 -878.287)"
           fill="#d8dee8" />
        <path
           id="Path_350"
           data-name="Path 350"
           d="M910.705,962.269a4.81,4.81,0,0,1-5.082,4.817,5.358,5.358,0,0,1-5.124-5.275A4.809,4.809,0,0,1,905.624,957,5.36,5.36,0,0,1,910.705,962.269Z"
           transform="translate(-882.49 -947.692)"
           fill="#fff" />
        <path
           id="Path_351"
           data-name="Path 351"
           d="M1061.183,969.512a4.707,4.707,0,0,1-4.938,4.751,5.243,5.243,0,0,1-4.978-5.2,4.705,4.705,0,0,1,4.978-4.749A5.246,5.246,0,0,1,1061.183,969.512Z"
           transform="translate(-1015.446 -954.149)"
           fill="#fff" />
        <path
           id="Path_352"
           data-name="Path 352"
           d="M1207.407,976.551a4.609,4.609,0,0,1-4.8,4.687,5.132,5.132,0,0,1-4.839-5.12,4.607,4.607,0,0,1,4.839-4.686A5.136,5.136,0,0,1,1207.407,976.551Z"
           transform="translate(-1144.641 -960.424)"
           fill="#fff" />
        <path
           id="Path_353"
           data-name="Path 353"
           d="M1129.4,1444.481l-223.96,16.244V1357.576l223.96,2.38Z"
           transform="translate(-886.849 -1300.956)"
           fill="url(#linear-gradient-10)"
           style="fill-opacity:1;fill:#babaf4" />
        <path
           id="Path_354"
           data-name="Path 354"
           d="M1129.4,2168.331l-223.96,19.458v-7.9l223.96-18.031Z"
           transform="translate(-886.849 -2010.22)"
           fill="#d8dee8" />
        <path
           id="Path_355"
           data-name="Path 355"
           d="M1129.4,2302.826l-223.96,22.959v-7.9l223.96-21.532Z"
           transform="translate(-886.849 -2128.826)"
           fill="#d8dee8" />
        <g
           id="Group_472"
           data-name="Group 472"
           transform="translate(18.594 39.512)">
          <path
             id="Path_356"
             data-name="Path 356"
             d="M1033.13,1215.868l-127.686-3.118v7.9l127.686,2.3Z"
             transform="translate(-905.444 -1212.75)"
             fill="#d8dee8" />
          <path
             id="Path_357"
             data-name="Path 357"
             d="M2705.659,1256.708v6.549l11.292.2v-6.477Z"
             transform="translate(-2492.99 -1251.515)"
             fill="#d8dee8" />
        </g>
        <g
           id="Group_473"
           data-name="Group 473"
           opacity="0.808"
           style="mix-blend-mode: soft-light;isolation: isolate"
           transform="translate(0)">
          <path
             id="Path_358"
             data-name="Path 358"
             d="M910.608,977.491c-26.191-39.667-73.474-26.02-104.739-72.3a104.635,104.635,0,0,1-12.384-25.228l-29.464-1.654a14.845,14.845,0,0,0-15.975,14.806v188.045c0,8.673,7.2,14.852,15.975,13.815l179.009-21.154a136.344,136.344,0,0,1-13.174-24.35C915.016,1013.928,926.031,1000.849,910.608,977.491Z"
             transform="translate(-748.046 -878.287)"
             fill="#fff" />
        </g>
        <path
           id="Path_382"
           data-name="Path 382"
           d="M1709.067,1498.093v-57.852c0-3.714,2.912-6.153,5.419-4.558l43.361,27.588c2.623,1.669,2.623,6.86,0,8.695l-43.361,30.341C1711.979,1504.061,1709.067,1501.807,1709.067,1498.093Z"
           transform="translate(-1588.01 -1360.718)"
           fill="#34c97c"
           opacity="0.408"
           style="fill:#4e39bf;fill-opacity:1" />
        <path
           id="Path_359"
           data-name="Path 359"
           d="M1709.067,1498.093v-57.852c0-3.714,2.912-6.153,5.419-4.558l43.361,27.588c2.623,1.669,2.623,6.86,0,8.695l-43.361,30.341C1711.979,1504.061,1709.067,1501.807,1709.067,1498.093Z"
           transform="translate(-1590.458 -1363.167)"
           fill="#fff" />
      </g>
    </g>
    <g
       id="Group_476"
       data-name="Group 476"
       transform="translate(408.293 681.77)"
       style="fill:#8787ff;fill-opacity:1">
      <path
         id="Path_360"
         data-name="Path 360"
         d="M550.313,2387.381l16.928,23.855c-19.034,11.72-37.556,23.062-56.59,34.782,10.121,13.644,20.242,28.76,30.363,42.4,16.738-14.815,32.965-30.723,49.7-45.538l18.871,24.583,26.193-82.543Z"
         transform="translate(-510.651 -2382.342)"
         fill="#d12323"
         style="fill:#8787ff;fill-opacity:1" />
      <path
         id="Path_361"
         data-name="Path 361"
         d="M674.682,2363.068l-10.312,28.159-18.794,51.312-15.957-21.512c-16.741,14.816-32.969,29.249-49.705,44.065-9.335-12.581-18.8-25.365-28.159-37.976l-2.364-3.19c19.036-11.72,37.4-23.139,56.435-34.859l-15.643-21.2Z"
         transform="translate(-544.814 -2363.068)"
         fill="url(#linear-gradient-11)"
         style="fill:#8787ff;fill-opacity:1" />
      <path
         id="Path_362"
         data-name="Path 362"
         d="M682.015,2596.969,663.22,2648.28l-15.957-21.511c-16.741,14.816-32.969,29.249-49.705,44.065-9.335-12.581-18.8-25.365-28.159-37.976,6.562-5.425,16.659-9.976,31.143-7.268,29.925,5.6,31,.216,43.488-9.257C654.355,2608.5,667.625,2593.158,682.015,2596.969Z"
         transform="translate(-562.459 -2568.81)"
         opacity="0.3"
         fill="url(#linear-gradient-12)"
         style="mix-blend-mode:multiply;isolation:isolate;fill:#8787ff;fill-opacity:1" />
    </g>
    <g
       id="Group_479"
       data-name="Group 479"
       transform="translate(548.143 599.456)">
      <path
         id="Path_363"
         data-name="Path 363"
         d="M2134.29,1670.515s-3.849.539-4.509-2.1-6.656-2.072-7.646-2.072,3.423,1.91,4.414,3.231,4.733,2.429,4.733,2.429Z"
         transform="translate(-2071.486 -1666.289)"
         fill="url(#linear-gradient-13)" />
      <path
         id="Path_364"
         data-name="Path 364"
         d="M2183.768,1699.368l3.188-1.594c5.12.433,19.7,2.35,30.28,13.945,14.216,15.585,15.157,42.046,7.172,46.615-5.806,3.322-18.748-3.543-21.913-12.749-2.684-7.806,3.292-12.552,2.39-21.515C2204.26,1717.857,2200.274,1709.05,2183.768,1699.368Z"
         transform="translate(-2125.965 -1694.055)"
         fill="url(#linear-gradient-14)" />
      <path
         id="Path_365"
         data-name="Path 365"
         d="M1703.424,2042.8s.245-4.584-.479-5.927-3.349-1.418-5.566-2.441l-1.543-5.646s-1.907,3.9-1.219,6.8c.359,1.514,5.664,3.421,6.239,4.359s.01,4.378.01,4.378Z"
         transform="translate(-1694.467 -1985.962)"
         fill="url(#linear-gradient-15)" />
      <path
         id="Path_366"
         data-name="Path 366"
         d="M2240.648,2029.475l3.637,4.993-3.522,2.959-3.033-6.208Z"
         transform="translate(-2173.551 -1986.57)"
         fill="url(#linear-gradient-16)" />
      <g
         id="Group_478"
         data-name="Group 478"
         transform="translate(58.901 35.852)">
        <g
           id="Group_477"
           data-name="Group 477">
          <path
             id="Path_367"
             data-name="Path 367"
             d="M2218.324,1989.1c-.355.007-2.7,1-3.679-.01-1.328-1.366-1.005-4.139-1.006-4.556,0-1.743.085-2.028.307-2.451l.321-.562.046-.053a6.38,6.38,0,0,1,1.531-.957c.765-.226,3.011,2.169,4.947,6.229q.165.2.33.41C2221.405,1987.507,2218.384,1989.246,2218.324,1989.1Z"
             transform="translate(-2211.178 -1979.226)"
             fill="url(#linear-gradient-17)" />
          <path
             id="Path_368"
             data-name="Path 368"
             d="M2193.73,1973.119a5.908,5.908,0,0,0,2.752.856,2.29,2.29,0,0,1,.706.243.707.707,0,0,1,.148.107c.686.625-.046,2.2.378,2.414.307.157.958-.63,1.175-.468s-.259.95-.021,1.136c.18.141.514-.259.936-.123.21.067.231.2.606.552a4.374,4.374,0,0,0,.636.5c.813.488,2.151.1,2.226-.312.021-.115-.071-.152-.151-.457a2.439,2.439,0,0,1-.058-.664,6.343,6.343,0,0,1,.829-1.926,4.512,4.512,0,0,0,.577-2.542c0-.031-.008-.06-.012-.086-.006-.048-.014-.094-.024-.14-.217-.964-1.37-1.476-1.956-1.687a12.975,12.975,0,0,0-3.848-.745c-.456-.018-4.874-.163-5.5,1.519A1.86,1.86,0,0,0,2193.73,1973.119Z"
             transform="translate(-2193.06 -1969.769)"
             fill="#26264f" />
          <path
             id="Path_369"
             data-name="Path 369"
             d="M2234.642,2021.414c.076-.574.813-.473,1.105.058a1.1,1.1,0,0,1-.481,1.532C2234.708,2023.171,2234.54,2022.188,2234.642,2021.414Z"
             transform="translate(-2229.705 -2014.971)"
             fill="url(#linear-gradient-18)" />
        </g>
      </g>
      <path
         id="Path_370"
         data-name="Path 370"
         d="M2530.914,3276.955l-.522,6.179-2.229.985-.852-6.538Z"
         transform="translate(-2428.923 -3086.679)"
         fill="url(#linear-gradient-19)" />
      <path
         id="Path_371"
         data-name="Path 371"
         d="M2488.32,3323.606l.422,2.077s-.128.9-5.007,2.1-5.672-.727-4.5-1.051,4.82-2.063,4.82-2.063l3.051-1.633A.838.838,0,0,1,2488.32,3323.606Z"
         transform="translate(-2386.104 -3127.227)"
         fill="url(#linear-gradient-20)" />
      <path
         id="Path_372"
         data-name="Path 372"
         d="M2205.626,3247.2l2.414,6.166-1.3,1.691-4.775-5.793Z"
         transform="translate(-2142.012 -3060.442)"
         fill="url(#linear-gradient-21)" />
      <path
         id="Path_373"
         data-name="Path 373"
         d="M2209.878,3292.925l1.452,1.544s.364.83-3.152,4.419-5.206,2.368-4.382,1.476,3.012-4.292,3.012-4.292l1.735-2.994A.838.838,0,0,1,2209.878,3292.925Z"
         transform="translate(-2143.445 -3100.53)"
         fill="url(#linear-gradient-22)" />
      <path
         id="Path_374"
         data-name="Path 374"
         d="M2368.025,2609.625c.408,3.762,1.154,9.488,2.574,16.373,3.206,15.548,6.615,21.319,8.2,30.193,1.336,7.478,1.626,18.556-3.878,33.239l-5.283.45a96.82,96.82,0,0,0-4.705-26.653c-3.709-11.258-10.166-23.539-14.6-42.607-.923-3.965-1.846-8.6.687-11.339C2355.376,2604.57,2366.662,2609.066,2368.025,2609.625Z"
         transform="translate(-2272.008 -2496.003)"
         fill="url(#linear-gradient-23)"
         style="fill:#c384c3;fill-opacity:1" />
      <path
         id="Path_375"
         data-name="Path 375"
         d="M2351.017,2609.282c4.36-4.712,15.646-.216,17.008.344.221,2.037.546,4.665,1.018,7.725-6.311,8.478-6.722,14.137-5.657,17.874,1.645,5.772,6.976,7.656,7.216,14.431.16,4.534-2.159,5.625-1.375,10.136.861,4.949,3.907,5.106,4.982,9.792,1.169,5.1-1.9,7.235-2.405,13.572a22.023,22.023,0,0,0,.49,6.5l-2.656.226a96.82,96.82,0,0,0-4.705-26.653c-3.709-11.258-10.166-23.539-14.6-42.607C2349.407,2616.656,2348.484,2612.019,2351.017,2609.282Z"
         transform="translate(-2272.008 -2496.003)"
         opacity="0.3"
         fill="url(#linear-gradient-24)"
         style="mix-blend-mode:multiply;isolation:isolate;fill:#c430c4;fill-opacity:1" />
      <path
         id="Path_376"
         data-name="Path 376"
         d="M2151.124,2591.729a36.992,36.992,0,0,1-4.249,13.252c-4.887,8.841-10.671,10.164-17.369,19.159a50.846,50.846,0,0,0-8.275,17.068c-3.231,12.54-.014,23.786,2.515,30.135l-4.748,2.851a55.854,55.854,0,0,1-12.135-28.49c-3.237-28.669,18.555-48.6,21.037-50.794Z"
         transform="translate(-2057.855 -2482.402)"
         fill="url(#linear-gradient-25)"
         style="fill:#b474b4;fill-opacity:1" />
      <path
         id="Path_377"
         data-name="Path 377"
         d="M1821.282,2019.571a11.925,11.925,0,0,1,6.9,2.6c9.455,7.194,11.645,28.823,11.645,28.823a122.561,122.561,0,0,1-3.427,42.874c-3.572.306-9.738.867-17.513,1.752-9.868,1.125-13.041,1.715-15.737-.348-3.646-2.787-3.062-7.854-3.859-14.978a74.792,74.792,0,0,0-8.075-25.942,27.857,27.857,0,0,1-26.952,7.937c-11.34-2.974-19.715-13.382-20.457-25.753,1.043-.62,2.864-1.809,3.907-2.429,3.578,3.011,8.973,7.815,17.214,8.743,12.96,1.458,24.641-5.984,29.553-9.114,7.186-4.578,14.823-8.407,22.162-12.735A9.581,9.581,0,0,1,1821.282,2019.571Z"
         transform="translate(-1737.981 -1977.836)"
         fill="url(#linear-gradient-26)" />
      <path
         id="Path_378"
         data-name="Path 378"
         d="M2232.979,2120.222c.906-.121,8.364-1.212,10.652-6.357,1.767-3.974-1.42-6.165.172-10.823,1.725-5.048,6.277-4.841,7.9-9.621,1.309-3.848-1.121-5.511-1.89-11.167-1.338-9.844,4.861-13.345,4.3-21.819a19.31,19.31,0,0,0-3.521-9.611c8.387,8.061,10.384,27.727,10.384,27.727a122.546,122.546,0,0,1-3.427,42.874c-3.572.306-9.737.867-17.513,1.753-9.868,1.125-13.04,1.715-15.737-.348a8.239,8.239,0,0,1-2.926-5.481A17.341,17.341,0,0,0,2232.979,2120.222Z"
         transform="translate(-2159.124 -2005.398)"
         opacity="0.3"
         fill="url(#linear-gradient-27)"
         style="mix-blend-mode: multiply;isolation: isolate" />
    </g>
    <g
       id="Group_480"
       data-name="Group 480"
       transform="translate(668.7 696.064)">
      <path
         id="Path_380"
         data-name="Path 380"
         d="M3003.652,2670.4c-1.627-4.516-2.6-12.24-2.737-21.751a142.293,142.293,0,0,1,1.3-22.342c1.653-10.312,1.553-24.84,1.552-24.985l.861-.007c0,.146.1,14.747-1.563,25.129-2.695,16.815-.974,37.093,1.394,43.666Z"
         transform="translate(-2967.121 -2587.46)"
         fill="#fff"
         opacity="0.5" />
    </g>
  </g>
</svg>
