<?xml version="1.0" encoding="iso-8859-1"?>
<!-- Generator: Adobe Illustrator 19.0.0, SVG Export Plug-In . SVG Version: 6.00 Build 0)  -->
<svg version="1.1" id="Capa_1" xmlns="http://www.w3.org/2000/svg" xmlns:xlink="http://www.w3.org/1999/xlink" x="0px" y="0px"
	 viewBox="0 0 502.664 502.664" style="enable-background:new 0 0 502.664 502.664;" xml:space="preserve">
<g>
	<g>
		<path style="fill:#010002;" d="M454.691,198.117c-23.62-90.489-105.718-157.424-203.671-157.424
			c-102.375,0-187.644,73.082-206.627,169.891h47.499c18.163-71.054,82.422-123.687,159.128-123.687
			c72.197,0,133.351,46.55,155.439,111.219h-47.305l71.744,71.766l71.766-71.766H454.691z"/>
		<path style="fill:#010002;" d="M48.017,304.526c23.598,90.511,105.654,157.445,203.607,157.445
			c102.397,0,187.666-73.082,206.626-169.913h-47.477c-18.184,71.076-82.422,123.687-159.149,123.687
			c-72.176,0-133.286-46.55-155.439-111.219h47.305l-71.723-71.723L0,304.504C0,304.504,48.017,304.504,48.017,304.526z"/>
		<path style="fill:#010002;" d="M182.64,307.438h36.131v-115.21H182.64V307.438z M237.581,192.228v115.21l75.8,47.736V144.557
			L237.581,192.228z"/>
	</g>
	<g>
	</g>
	<g>
	</g>
	<g>
	</g>
	<g>
	</g>
	<g>
	</g>
	<g>
	</g>
	<g>
	</g>
	<g>
	</g>
	<g>
	</g>
	<g>
	</g>
	<g>
	</g>
	<g>
	</g>
	<g>
	</g>
	<g>
	</g>
	<g>
	</g>
</g>
<g>
</g>
<g>
</g>
<g>
</g>
<g>
</g>
<g>
</g>
<g>
</g>
<g>
</g>
<g>
</g>
<g>
</g>
<g>
</g>
<g>
</g>
<g>
</g>
<g>
</g>
<g>
</g>
<g>
</g>
</svg>
