<?xml version="1.0" encoding="UTF-8" standalone="no"?>
<svg
   data-name="Layer 1"
   viewBox="0 0 512 640"
   x="0px"
   y="0px"
   version="1.1"
   id="svg30820"
   sodipodi:docname="noun_web_3533327.svg"
   inkscape:version="1.1 (c68e22c387, 2021-05-23)"
   xmlns:inkscape="http://www.inkscape.org/namespaces/inkscape"
   xmlns:sodipodi="http://sodipodi.sourceforge.net/DTD/sodipodi-0.dtd"
   xmlns="http://www.w3.org/2000/svg"
   xmlns:svg="http://www.w3.org/2000/svg"
   xmlns:rdf="http://www.w3.org/1999/02/22-rdf-syntax-ns#"
   xmlns:cc="http://creativecommons.org/ns#"
   xmlns:dc="http://purl.org/dc/elements/1.1/">
  <defs
     id="defs30824" />
  <sodipodi:namedview
     id="namedview30822"
     pagecolor="#ffffff"
     bordercolor="#999999"
     borderopacity="1"
     inkscape:pageshadow="0"
     inkscape:pageopacity="0"
     inkscape:pagecheckerboard="0"
     showgrid="false"
     inkscape:zoom="1.26875"
     inkscape:cx="255.76355"
     inkscape:cy="295.96059"
     inkscape:window-width="1920"
     inkscape:window-height="1001"
     inkscape:window-x="-9"
     inkscape:window-y="-9"
     inkscape:window-maximized="1"
     inkscape:current-layer="svg30820" />
  <title
     id="title30790">Webinar</title>
  <path
     d="M219.476,380.637a33.425,33.425,0,0,0,66.85,0V345.178l-2.159.8a33.41,33.41,0,0,1-29.649-3.256,21.282,21.282,0,0,0-14.5-3.206l-20.541,2.876Z"
     id="path30792"
     style="fill:#46b3fc;fill-opacity:1" />
  <path
     d="M261.036,332.649a21.365,21.365,0,0,0,18.955,2.081l4.734-1.758A33.48,33.48,0,0,0,252.9,309.758H219.476v20.52l18.877-2.643A33.276,33.276,0,0,1,261.036,332.649Z"
     id="path30794"
     style="fill:#46b3fc;fill-opacity:1" />
  <path
     d="M105.512,313.81a40.326,40.326,0,0,1-11.725-1.755c-4.81-1.46-8.86-2.3-11.113-2.3a33.462,33.462,0,0,0-33.425,33.425V352H55.24a12.192,12.192,0,0,0,12.179-12.178A14.338,14.338,0,0,1,81.741,325.5h40.412A17.719,17.719,0,0,0,105.512,313.81Z"
     id="path30796"
     style="fill:#46b3fc;fill-opacity:1" />
  <path
     d="M383.505,375.709a33.425,33.425,0,0,0,66.85,0V363.3c-8.212-1.323-14.6-8.791-18.689-16.259a73.734,73.734,0,0,1-45.575,15.937h-2.586Z"
     id="path30798"
     style="fill:#46b3fc;fill-opacity:1" />
  <path
     d="M49.249,380.637a33.425,33.425,0,1,0,66.85,0V355.085A22.655,22.655,0,0,1,99.907,337.5H81.741a2.324,2.324,0,0,0-2.322,2.322A24.205,24.205,0,0,1,55.24,364H49.249Z"
     id="path30800"
     style="fill:#46b3fc;fill-opacity:1" />
  <path
     d="M116.1,342.026V337.5h-3.721A10.652,10.652,0,0,0,116.1,342.026Z"
     id="path30802" />
  <path
     d="M476.634,21.419H35.366A18.386,18.386,0,0,0,17,39.784V320.5a18.386,18.386,0,0,0,18.366,18.365h2.093a45.483,45.483,0,0,1,45.214-41.109c3.535,0,8.447.947,14.6,2.815a28.356,28.356,0,0,0,8.239,1.237A29.723,29.723,0,0,1,135.2,331.5a6,6,0,0,1-6,6h-1.1v1.368h79.377V303.758a6,6,0,0,1,6-6H252.9a45.483,45.483,0,0,1,45.214,41.109h74.338A45.393,45.393,0,0,1,451.1,318.224h9.345a29.133,29.133,0,0,1,26.619,17.37A18.32,18.32,0,0,0,495,320.5V39.784A18.386,18.386,0,0,0,476.634,21.419Zm-257.091,81.5A8.437,8.437,0,0,1,232.2,95.608l84.061,48.533a8.437,8.437,0,0,1,0,14.613l-13.52,7.805a6,6,0,1,1-6-10.392l8.174-4.72-73.371-42.36v84.721L250.8,182.69a6,6,0,0,1,6,10.393l-24.6,14.2a8.436,8.436,0,0,1-12.655-7.306Zm65.55,73.833-8.363,4.829a6,6,0,0,1-6-10.393l8.363-4.828a6,6,0,0,1,6,10.392Zm171.565,92.8H101.473v15.5a6,6,0,0,1-12,0v-15.5H55.342a6,6,0,1,1,0-12H89.473v-15.5a6,6,0,0,1,12,0v15.5H456.658a6,6,0,0,1,0,12Z"
     id="path30804"
     style="fill:#3c3cc2;fill-opacity:1" />
  <path
     d="M429.509,332.905a6,6,0,0,1,9.914,2.223c1.126,3.146,5.62,12.864,10.932,15.612v-2.629a33.425,33.425,0,0,0-66.85,0v2.871h2.586A61.58,61.58,0,0,0,429.509,332.905Z"
     id="path30806"
     style="fill:#46b3fc;fill-opacity:1" />
  <path
     d="M460.44,330.224h-1.761a45.155,45.155,0,0,1,3.676,17.887V364.3a17.093,17.093,0,0,0-1.915-34.078Z"
     id="path30808"
     style="fill:#46b3fc;fill-opacity:1" />
  <path
     d="M277.11,433.8H228.691a24.028,24.028,0,0,0-24,24V490.51H301.11V457.8A24.027,24.027,0,0,0,277.11,433.8Zm6.32,32.338H272.614a6,6,0,0,1,0-12H283.43a6,6,0,0,1,0,12Z"
     id="path30810"
     style="fill:#46b3fc;fill-opacity:1" />
  <path
     d="M106.883,433.8H58.464a24.027,24.027,0,0,0-24,24V490.51h96.419V457.8A24.028,24.028,0,0,0,106.883,433.8Zm6.32,32.338H102.386a6,6,0,0,1,0-12H113.2a6,6,0,1,1,0,12Z"
     id="path30812"
     style="fill:#46b3fc;fill-opacity:1" />
  <path
     d="M441.14,428.875H392.721a24.027,24.027,0,0,0-24,24v37.706H465.14V452.875A24.027,24.027,0,0,0,441.14,428.875Zm6.32,32.338H436.643a6,6,0,0,1,0-12H447.46a6,6,0,0,1,0,12Z"
     id="path30814"
     style="fill:#46b3fc;fill-opacity:1" />
  <metadata
     id="metadata33140">
    <rdf:RDF>
      <cc:Work
         rdf:about="">
        <dc:title>Webinar</dc:title>
      </cc:Work>
    </rdf:RDF>
  </metadata>
</svg>
