<?xml version="1.0" encoding="UTF-8" standalone="no"?>
<svg
   version="1.1"
   x="0px"
   y="0px"
   viewBox="0 0 64 80"
   style="enable-background:new 0 0 64 64;"
   xml:space="preserve"
   id="svg858"
   sodipodi:docname="imagee1.svg"
   inkscape:version="1.1 (c68e22c387, 2021-05-23)"
   xmlns:inkscape="http://www.inkscape.org/namespaces/inkscape"
   xmlns:sodipodi="http://sodipodi.sourceforge.net/DTD/sodipodi-0.dtd"
   xmlns="http://www.w3.org/2000/svg"
   xmlns:svg="http://www.w3.org/2000/svg"><defs
     id="defs862" /><sodipodi:namedview
     id="namedview860"
     pagecolor="#ffffff"
     bordercolor="#999999"
     borderopacity="1"
     inkscape:pageshadow="0"
     inkscape:pageopacity="0"
     inkscape:pagecheckerboard="0"
     showgrid="false"
     inkscape:zoom="9.7875"
     inkscape:cx="32.030651"
     inkscape:cy="25.083014"
     inkscape:window-width="1920"
     inkscape:window-height="1001"
     inkscape:window-x="-9"
     inkscape:window-y="-9"
     inkscape:window-maximized="1"
     inkscape:current-layer="g850" /><g
     id="g852"
     style="fill:#000080"><path
       d="M63,0H36c-1.667,0-3.101,1.15-4,2.436C31.101,1.15,29.667,0,28,0H1C0.448,0,0,0.447,0,1v43c0,0.553,0.448,1,1,1h27   c1.654,0,3,1.346,3,3v1.131l-1.445-0.963C29.391,48.059,29.197,48,29,48H2v-1H0v2c0,0.553,0.448,1,1,1h27.697l2.748,1.832   C31.613,51.944,31.807,52,32,52s0.387-0.056,0.555-0.168L35.303,50H38v-2h-3c-0.197,0-0.391,0.059-0.555,0.168L33,49.131V48   c0-1.654,1.346-3,3-3h0.072l-1.967-7.211c-0.246-0.902-0.057-1.867,0.51-2.61C35.183,34.436,36.065,34,37,34h2.146   c0.642,0,1.266,0.1,1.854,0.29V23c0-0.389,0.075-0.759,0.209-1.1C39.834,20.319,39,18.255,39,16c0-4.963,4.038-9,9-9s9,4.037,9,9   c0,3.921-2.52,7.263-6.025,8.494C50.991,24.661,51,24.829,51,25v4c1.478,0,2.771,0.805,3.463,2H55c1.012,0,1.938,0.378,2.643,1H59   c2.206,0,4,1.794,4,4v3v6c0.552,0,1-0.447,1-1V1C64,0.447,63.552,0,63,0z M6,7h13v2H6V7z M6,13h7v2H6V13z M6,19h13v2H6V19z M6,25   h13v2H6V25z M6,31h7v2H6V31z M19,39H6v-2h13V39z M27,39h-6v-2h6V39z M27,33H15v-2h12V33z M27,27h-6v-2h6V27z M27,21h-6v-2h6V21z    M27,15H15v-2h12V15z M27,9h-6V7h6V9z"
       id="path844"
       style="fill:#3c3cc2;fill-opacity:1" /><g
       id="g850"
       style="fill:#000080"><polygon
         points="47,17.832 50.207,16 47,14.168   "
         id="polygon846"
         style="fill:#3c3cc2;fill-opacity:1" /><path
         d="M59,34h-2.269c-0.346-0.597-0.992-1-1.731-1h-2c0-1.103-0.897-2-2-2h-2v-6c0-0.77-0.292-1.473-0.77-2.004    C51.984,22.874,55,19.782,55,16c0-3.859-3.14-7-7-7s-7,3.141-7,7c0,2.543,1.364,4.774,3.398,6H44c-0.552,0-1,0.447-1,1v15.764    l-0.276-0.553C42.042,36.848,40.671,36,39.146,36H37c-0.312,0-0.605,0.146-0.795,0.393c-0.189,0.248-0.252,0.57-0.17,0.87l3,11    c0.028,0.104,0.073,0.202,0.133,0.292L43,54.303V64h15v-8h-6v-2h6.414l2.293-2.293C60.895,51.52,61,51.266,61,51V36    C61,34.897,60.103,34,59,34z M45,12.444c0-0.356,0.19-0.686,0.498-0.865c0.309-0.178,0.689-0.179,0.998-0.003l6.222,3.556    c0.312,0.178,0.504,0.51,0.504,0.868s-0.192,0.69-0.504,0.868l-6.222,3.556c-0.154,0.088-0.325,0.132-0.496,0.132    c-0.173,0-0.347-0.045-0.502-0.135C45.19,20.241,45,19.912,45,19.556V12.444z M50,56h-2v-2h2V56z"
         id="path848"
         style="fill:#71c4fb;fill-opacity:1" /></g></g></svg>
